<?xml version="1.0" encoding="utf-8" standalone="no"?>
<!DOCTYPE svg PUBLIC "-//W3C//DTD SVG 1.1//EN"
  "http://www.w3.org/Graphics/SVG/1.1/DTD/svg11.dtd">
<!-- Created with matplotlib (https://matplotlib.org/) -->
<svg height="345.6pt" version="1.1" viewBox="0 0 460.8 345.6" width="460.8pt" xmlns="http://www.w3.org/2000/svg" xmlns:xlink="http://www.w3.org/1999/xlink">
 <defs>
  <style type="text/css">
*{stroke-linecap:butt;stroke-linejoin:round;}
  </style>
 </defs>
 <g id="figure_1">
  <g id="patch_1">
   <path d="M 0 345.6 
L 460.8 345.6 
L 460.8 0 
L 0 0 
z
" style="fill:#ffffff;"/>
  </g>
  <g id="axes_1">
   <g id="patch_2">
    <path d="M 78.23 303.64 
L 450 303.64 
L 450 25.44 
L 78.23 25.44 
z
" style="fill:#ffffff;"/>
   </g>
   <g id="matplotlib.axis_1">
    <g id="xtick_1">
     <g id="line2d_1">
      <path clip-path="url(#p0fda52ec31)" d="M 95.128636 303.64 
L 95.128636 25.44 
" style="fill:none;stroke:#b0b0b0;stroke-linecap:square;stroke-width:0.8;"/>
     </g>
     <g id="line2d_2">
      <defs>
       <path d="M 0 0 
L 0 3.5 
" id="mef22d71481" style="stroke:#000000;stroke-width:0.8;"/>
      </defs>
      <g>
       <use style="stroke:#000000;stroke-width:0.8;" x="95.128636" xlink:href="#mef22d71481" y="303.64"/>
      </g>
     </g>
     <g id="text_1">
      <!-- 0 -->
      <defs>
       <path d="M 31.78125 66.40625 
Q 24.171875 66.40625 20.328125 58.90625 
Q 16.5 51.421875 16.5 36.375 
Q 16.5 21.390625 20.328125 13.890625 
Q 24.171875 6.390625 31.78125 6.390625 
Q 39.453125 6.390625 43.28125 13.890625 
Q 47.125 21.390625 47.125 36.375 
Q 47.125 51.421875 43.28125 58.90625 
Q 39.453125 66.40625 31.78125 66.40625 
z
M 31.78125 74.21875 
Q 44.046875 74.21875 50.515625 64.515625 
Q 56.984375 54.828125 56.984375 36.375 
Q 56.984375 17.96875 50.515625 8.265625 
Q 44.046875 -1.421875 31.78125 -1.421875 
Q 19.53125 -1.421875 13.0625 8.265625 
Q 6.59375 17.96875 6.59375 36.375 
Q 6.59375 54.828125 13.0625 64.515625 
Q 19.53125 74.21875 31.78125 74.21875 
z
" id="DejaVuSans-48"/>
      </defs>
      <g transform="translate(91.947386 318.238437)scale(0.1 -0.1)">
       <use xlink:href="#DejaVuSans-48"/>
      </g>
     </g>
    </g>
    <g id="xtick_2">
     <g id="line2d_3">
      <path clip-path="url(#p0fda52ec31)" d="M 162.790844 303.64 
L 162.790844 25.44 
" style="fill:none;stroke:#b0b0b0;stroke-linecap:square;stroke-width:0.8;"/>
     </g>
     <g id="line2d_4">
      <g>
       <use style="stroke:#000000;stroke-width:0.8;" x="162.790844" xlink:href="#mef22d71481" y="303.64"/>
      </g>
     </g>
     <g id="text_2">
      <!-- 200 -->
      <defs>
       <path d="M 19.1875 8.296875 
L 53.609375 8.296875 
L 53.609375 0 
L 7.328125 0 
L 7.328125 8.296875 
Q 12.9375 14.109375 22.625 23.890625 
Q 32.328125 33.6875 34.8125 36.53125 
Q 39.546875 41.84375 41.421875 45.53125 
Q 43.3125 49.21875 43.3125 52.78125 
Q 43.3125 58.59375 39.234375 62.25 
Q 35.15625 65.921875 28.609375 65.921875 
Q 23.96875 65.921875 18.8125 64.3125 
Q 13.671875 62.703125 7.8125 59.421875 
L 7.8125 69.390625 
Q 13.765625 71.78125 18.9375 73 
Q 24.125 74.21875 28.421875 74.21875 
Q 39.75 74.21875 46.484375 68.546875 
Q 53.21875 62.890625 53.21875 53.421875 
Q 53.21875 48.921875 51.53125 44.890625 
Q 49.859375 40.875 45.40625 35.40625 
Q 44.1875 33.984375 37.640625 27.21875 
Q 31.109375 20.453125 19.1875 8.296875 
z
" id="DejaVuSans-50"/>
      </defs>
      <g transform="translate(153.247094 318.238437)scale(0.1 -0.1)">
       <use xlink:href="#DejaVuSans-50"/>
       <use x="63.623047" xlink:href="#DejaVuSans-48"/>
       <use x="127.246094" xlink:href="#DejaVuSans-48"/>
      </g>
     </g>
    </g>
    <g id="xtick_3">
     <g id="line2d_5">
      <path clip-path="url(#p0fda52ec31)" d="M 230.453052 303.64 
L 230.453052 25.44 
" style="fill:none;stroke:#b0b0b0;stroke-linecap:square;stroke-width:0.8;"/>
     </g>
     <g id="line2d_6">
      <g>
       <use style="stroke:#000000;stroke-width:0.8;" x="230.453052" xlink:href="#mef22d71481" y="303.64"/>
      </g>
     </g>
     <g id="text_3">
      <!-- 400 -->
      <defs>
       <path d="M 37.796875 64.3125 
L 12.890625 25.390625 
L 37.796875 25.390625 
z
M 35.203125 72.90625 
L 47.609375 72.90625 
L 47.609375 25.390625 
L 58.015625 25.390625 
L 58.015625 17.1875 
L 47.609375 17.1875 
L 47.609375 0 
L 37.796875 0 
L 37.796875 17.1875 
L 4.890625 17.1875 
L 4.890625 26.703125 
z
" id="DejaVuSans-52"/>
      </defs>
      <g transform="translate(220.909302 318.238437)scale(0.1 -0.1)">
       <use xlink:href="#DejaVuSans-52"/>
       <use x="63.623047" xlink:href="#DejaVuSans-48"/>
       <use x="127.246094" xlink:href="#DejaVuSans-48"/>
      </g>
     </g>
    </g>
    <g id="xtick_4">
     <g id="line2d_7">
      <path clip-path="url(#p0fda52ec31)" d="M 298.115259 303.64 
L 298.115259 25.44 
" style="fill:none;stroke:#b0b0b0;stroke-linecap:square;stroke-width:0.8;"/>
     </g>
     <g id="line2d_8">
      <g>
       <use style="stroke:#000000;stroke-width:0.8;" x="298.115259" xlink:href="#mef22d71481" y="303.64"/>
      </g>
     </g>
     <g id="text_4">
      <!-- 600 -->
      <defs>
       <path d="M 33.015625 40.375 
Q 26.375 40.375 22.484375 35.828125 
Q 18.609375 31.296875 18.609375 23.390625 
Q 18.609375 15.53125 22.484375 10.953125 
Q 26.375 6.390625 33.015625 6.390625 
Q 39.65625 6.390625 43.53125 10.953125 
Q 47.40625 15.53125 47.40625 23.390625 
Q 47.40625 31.296875 43.53125 35.828125 
Q 39.65625 40.375 33.015625 40.375 
z
M 52.59375 71.296875 
L 52.59375 62.3125 
Q 48.875 64.0625 45.09375 64.984375 
Q 41.3125 65.921875 37.59375 65.921875 
Q 27.828125 65.921875 22.671875 59.328125 
Q 17.53125 52.734375 16.796875 39.40625 
Q 19.671875 43.65625 24.015625 45.921875 
Q 28.375 48.1875 33.59375 48.1875 
Q 44.578125 48.1875 50.953125 41.515625 
Q 57.328125 34.859375 57.328125 23.390625 
Q 57.328125 12.15625 50.6875 5.359375 
Q 44.046875 -1.421875 33.015625 -1.421875 
Q 20.359375 -1.421875 13.671875 8.265625 
Q 6.984375 17.96875 6.984375 36.375 
Q 6.984375 53.65625 15.1875 63.9375 
Q 23.390625 74.21875 37.203125 74.21875 
Q 40.921875 74.21875 44.703125 73.484375 
Q 48.484375 72.75 52.59375 71.296875 
z
" id="DejaVuSans-54"/>
      </defs>
      <g transform="translate(288.571509 318.238437)scale(0.1 -0.1)">
       <use xlink:href="#DejaVuSans-54"/>
       <use x="63.623047" xlink:href="#DejaVuSans-48"/>
       <use x="127.246094" xlink:href="#DejaVuSans-48"/>
      </g>
     </g>
    </g>
    <g id="xtick_5">
     <g id="line2d_9">
      <path clip-path="url(#p0fda52ec31)" d="M 365.777467 303.64 
L 365.777467 25.44 
" style="fill:none;stroke:#b0b0b0;stroke-linecap:square;stroke-width:0.8;"/>
     </g>
     <g id="line2d_10">
      <g>
       <use style="stroke:#000000;stroke-width:0.8;" x="365.777467" xlink:href="#mef22d71481" y="303.64"/>
      </g>
     </g>
     <g id="text_5">
      <!-- 800 -->
      <defs>
       <path d="M 31.78125 34.625 
Q 24.75 34.625 20.71875 30.859375 
Q 16.703125 27.09375 16.703125 20.515625 
Q 16.703125 13.921875 20.71875 10.15625 
Q 24.75 6.390625 31.78125 6.390625 
Q 38.8125 6.390625 42.859375 10.171875 
Q 46.921875 13.96875 46.921875 20.515625 
Q 46.921875 27.09375 42.890625 30.859375 
Q 38.875 34.625 31.78125 34.625 
z
M 21.921875 38.8125 
Q 15.578125 40.375 12.03125 44.71875 
Q 8.5 49.078125 8.5 55.328125 
Q 8.5 64.0625 14.71875 69.140625 
Q 20.953125 74.21875 31.78125 74.21875 
Q 42.671875 74.21875 48.875 69.140625 
Q 55.078125 64.0625 55.078125 55.328125 
Q 55.078125 49.078125 51.53125 44.71875 
Q 48 40.375 41.703125 38.8125 
Q 48.828125 37.15625 52.796875 32.3125 
Q 56.78125 27.484375 56.78125 20.515625 
Q 56.78125 9.90625 50.3125 4.234375 
Q 43.84375 -1.421875 31.78125 -1.421875 
Q 19.734375 -1.421875 13.25 4.234375 
Q 6.78125 9.90625 6.78125 20.515625 
Q 6.78125 27.484375 10.78125 32.3125 
Q 14.796875 37.15625 21.921875 38.8125 
z
M 18.3125 54.390625 
Q 18.3125 48.734375 21.84375 45.5625 
Q 25.390625 42.390625 31.78125 42.390625 
Q 38.140625 42.390625 41.71875 45.5625 
Q 45.3125 48.734375 45.3125 54.390625 
Q 45.3125 60.0625 41.71875 63.234375 
Q 38.140625 66.40625 31.78125 66.40625 
Q 25.390625 66.40625 21.84375 63.234375 
Q 18.3125 60.0625 18.3125 54.390625 
z
" id="DejaVuSans-56"/>
      </defs>
      <g transform="translate(356.233717 318.238437)scale(0.1 -0.1)">
       <use xlink:href="#DejaVuSans-56"/>
       <use x="63.623047" xlink:href="#DejaVuSans-48"/>
       <use x="127.246094" xlink:href="#DejaVuSans-48"/>
      </g>
     </g>
    </g>
    <g id="xtick_6">
     <g id="line2d_11">
      <path clip-path="url(#p0fda52ec31)" d="M 433.439675 303.64 
L 433.439675 25.44 
" style="fill:none;stroke:#b0b0b0;stroke-linecap:square;stroke-width:0.8;"/>
     </g>
     <g id="line2d_12">
      <g>
       <use style="stroke:#000000;stroke-width:0.8;" x="433.439675" xlink:href="#mef22d71481" y="303.64"/>
      </g>
     </g>
     <g id="text_6">
      <!-- 1000 -->
      <defs>
       <path d="M 12.40625 8.296875 
L 28.515625 8.296875 
L 28.515625 63.921875 
L 10.984375 60.40625 
L 10.984375 69.390625 
L 28.421875 72.90625 
L 38.28125 72.90625 
L 38.28125 8.296875 
L 54.390625 8.296875 
L 54.390625 0 
L 12.40625 0 
z
" id="DejaVuSans-49"/>
      </defs>
      <g transform="translate(420.714675 318.238437)scale(0.1 -0.1)">
       <use xlink:href="#DejaVuSans-49"/>
       <use x="63.623047" xlink:href="#DejaVuSans-48"/>
       <use x="127.246094" xlink:href="#DejaVuSans-48"/>
       <use x="190.869141" xlink:href="#DejaVuSans-48"/>
      </g>
     </g>
    </g>
    <g id="text_7">
     <!-- Episode -->
     <defs>
      <path d="M 9.8125 72.90625 
L 55.90625 72.90625 
L 55.90625 64.59375 
L 19.671875 64.59375 
L 19.671875 43.015625 
L 54.390625 43.015625 
L 54.390625 34.71875 
L 19.671875 34.71875 
L 19.671875 8.296875 
L 56.78125 8.296875 
L 56.78125 0 
L 9.8125 0 
z
" id="DejaVuSans-69"/>
      <path d="M 18.109375 8.203125 
L 18.109375 -20.796875 
L 9.078125 -20.796875 
L 9.078125 54.6875 
L 18.109375 54.6875 
L 18.109375 46.390625 
Q 20.953125 51.265625 25.265625 53.625 
Q 29.59375 56 35.59375 56 
Q 45.5625 56 51.78125 48.09375 
Q 58.015625 40.1875 58.015625 27.296875 
Q 58.015625 14.40625 51.78125 6.484375 
Q 45.5625 -1.421875 35.59375 -1.421875 
Q 29.59375 -1.421875 25.265625 0.953125 
Q 20.953125 3.328125 18.109375 8.203125 
z
M 48.6875 27.296875 
Q 48.6875 37.203125 44.609375 42.84375 
Q 40.53125 48.484375 33.40625 48.484375 
Q 26.265625 48.484375 22.1875 42.84375 
Q 18.109375 37.203125 18.109375 27.296875 
Q 18.109375 17.390625 22.1875 11.75 
Q 26.265625 6.109375 33.40625 6.109375 
Q 40.53125 6.109375 44.609375 11.75 
Q 48.6875 17.390625 48.6875 27.296875 
z
" id="DejaVuSans-112"/>
      <path d="M 9.421875 54.6875 
L 18.40625 54.6875 
L 18.40625 0 
L 9.421875 0 
z
M 9.421875 75.984375 
L 18.40625 75.984375 
L 18.40625 64.59375 
L 9.421875 64.59375 
z
" id="DejaVuSans-105"/>
      <path d="M 44.28125 53.078125 
L 44.28125 44.578125 
Q 40.484375 46.53125 36.375 47.5 
Q 32.28125 48.484375 27.875 48.484375 
Q 21.1875 48.484375 17.84375 46.4375 
Q 14.5 44.390625 14.5 40.28125 
Q 14.5 37.15625 16.890625 35.375 
Q 19.28125 33.59375 26.515625 31.984375 
L 29.59375 31.296875 
Q 39.15625 29.25 43.1875 25.515625 
Q 47.21875 21.78125 47.21875 15.09375 
Q 47.21875 7.46875 41.1875 3.015625 
Q 35.15625 -1.421875 24.609375 -1.421875 
Q 20.21875 -1.421875 15.453125 -0.5625 
Q 10.6875 0.296875 5.421875 2 
L 5.421875 11.28125 
Q 10.40625 8.6875 15.234375 7.390625 
Q 20.0625 6.109375 24.8125 6.109375 
Q 31.15625 6.109375 34.5625 8.28125 
Q 37.984375 10.453125 37.984375 14.40625 
Q 37.984375 18.0625 35.515625 20.015625 
Q 33.0625 21.96875 24.703125 23.78125 
L 21.578125 24.515625 
Q 13.234375 26.265625 9.515625 29.90625 
Q 5.8125 33.546875 5.8125 39.890625 
Q 5.8125 47.609375 11.28125 51.796875 
Q 16.75 56 26.8125 56 
Q 31.78125 56 36.171875 55.265625 
Q 40.578125 54.546875 44.28125 53.078125 
z
" id="DejaVuSans-115"/>
      <path d="M 30.609375 48.390625 
Q 23.390625 48.390625 19.1875 42.75 
Q 14.984375 37.109375 14.984375 27.296875 
Q 14.984375 17.484375 19.15625 11.84375 
Q 23.34375 6.203125 30.609375 6.203125 
Q 37.796875 6.203125 41.984375 11.859375 
Q 46.1875 17.53125 46.1875 27.296875 
Q 46.1875 37.015625 41.984375 42.703125 
Q 37.796875 48.390625 30.609375 48.390625 
z
M 30.609375 56 
Q 42.328125 56 49.015625 48.375 
Q 55.71875 40.765625 55.71875 27.296875 
Q 55.71875 13.875 49.015625 6.21875 
Q 42.328125 -1.421875 30.609375 -1.421875 
Q 18.84375 -1.421875 12.171875 6.21875 
Q 5.515625 13.875 5.515625 27.296875 
Q 5.515625 40.765625 12.171875 48.375 
Q 18.84375 56 30.609375 56 
z
" id="DejaVuSans-111"/>
      <path d="M 45.40625 46.390625 
L 45.40625 75.984375 
L 54.390625 75.984375 
L 54.390625 0 
L 45.40625 0 
L 45.40625 8.203125 
Q 42.578125 3.328125 38.25 0.953125 
Q 33.9375 -1.421875 27.875 -1.421875 
Q 17.96875 -1.421875 11.734375 6.484375 
Q 5.515625 14.40625 5.515625 27.296875 
Q 5.515625 40.1875 11.734375 48.09375 
Q 17.96875 56 27.875 56 
Q 33.9375 56 38.25 53.625 
Q 42.578125 51.265625 45.40625 46.390625 
z
M 14.796875 27.296875 
Q 14.796875 17.390625 18.875 11.75 
Q 22.953125 6.109375 30.078125 6.109375 
Q 37.203125 6.109375 41.296875 11.75 
Q 45.40625 17.390625 45.40625 27.296875 
Q 45.40625 37.203125 41.296875 42.84375 
Q 37.203125 48.484375 30.078125 48.484375 
Q 22.953125 48.484375 18.875 42.84375 
Q 14.796875 37.203125 14.796875 27.296875 
z
" id="DejaVuSans-100"/>
      <path d="M 56.203125 29.59375 
L 56.203125 25.203125 
L 14.890625 25.203125 
Q 15.484375 15.921875 20.484375 11.0625 
Q 25.484375 6.203125 34.421875 6.203125 
Q 39.59375 6.203125 44.453125 7.46875 
Q 49.3125 8.734375 54.109375 11.28125 
L 54.109375 2.78125 
Q 49.265625 0.734375 44.1875 -0.34375 
Q 39.109375 -1.421875 33.890625 -1.421875 
Q 20.796875 -1.421875 13.15625 6.1875 
Q 5.515625 13.8125 5.515625 26.8125 
Q 5.515625 40.234375 12.765625 48.109375 
Q 20.015625 56 32.328125 56 
Q 43.359375 56 49.78125 48.890625 
Q 56.203125 41.796875 56.203125 29.59375 
z
M 47.21875 32.234375 
Q 47.125 39.59375 43.09375 43.984375 
Q 39.0625 48.390625 32.421875 48.390625 
Q 24.90625 48.390625 20.390625 44.140625 
Q 15.875 39.890625 15.1875 32.171875 
z
" id="DejaVuSans-101"/>
     </defs>
     <g transform="translate(244.4775 331.916562)scale(0.1 -0.1)">
      <use xlink:href="#DejaVuSans-69"/>
      <use x="63.183594" xlink:href="#DejaVuSans-112"/>
      <use x="126.660156" xlink:href="#DejaVuSans-105"/>
      <use x="154.443359" xlink:href="#DejaVuSans-115"/>
      <use x="206.542969" xlink:href="#DejaVuSans-111"/>
      <use x="267.724609" xlink:href="#DejaVuSans-100"/>
      <use x="331.201172" xlink:href="#DejaVuSans-101"/>
     </g>
    </g>
   </g>
   <g id="matplotlib.axis_2">
    <g id="ytick_1">
     <g id="line2d_13">
      <path clip-path="url(#p0fda52ec31)" d="M 78.23 278.981826 
L 450 278.981826 
" style="fill:none;stroke:#b0b0b0;stroke-linecap:square;stroke-width:0.8;"/>
     </g>
     <g id="line2d_14">
      <defs>
       <path d="M 0 0 
L -3.5 0 
" id="m0d531e5526" style="stroke:#000000;stroke-width:0.8;"/>
      </defs>
      <g>
       <use style="stroke:#000000;stroke-width:0.8;" x="78.23" xlink:href="#m0d531e5526" y="278.981826"/>
      </g>
     </g>
     <g id="text_8">
      <!-- −400000 -->
      <defs>
       <path d="M 10.59375 35.5 
L 73.1875 35.5 
L 73.1875 27.203125 
L 10.59375 27.203125 
z
" id="DejaVuSans-8722"/>
      </defs>
      <g transform="translate(24.675313 282.781044)scale(0.1 -0.1)">
       <use xlink:href="#DejaVuSans-8722"/>
       <use x="83.789062" xlink:href="#DejaVuSans-52"/>
       <use x="147.412109" xlink:href="#DejaVuSans-48"/>
       <use x="211.035156" xlink:href="#DejaVuSans-48"/>
       <use x="274.658203" xlink:href="#DejaVuSans-48"/>
       <use x="338.28125" xlink:href="#DejaVuSans-48"/>
       <use x="401.904297" xlink:href="#DejaVuSans-48"/>
      </g>
     </g>
    </g>
    <g id="ytick_2">
     <g id="line2d_15">
      <path clip-path="url(#p0fda52ec31)" d="M 78.23 246.55883 
L 450 246.55883 
" style="fill:none;stroke:#b0b0b0;stroke-linecap:square;stroke-width:0.8;"/>
     </g>
     <g id="line2d_16">
      <g>
       <use style="stroke:#000000;stroke-width:0.8;" x="78.23" xlink:href="#m0d531e5526" y="246.55883"/>
      </g>
     </g>
     <g id="text_9">
      <!-- −350000 -->
      <defs>
       <path d="M 40.578125 39.3125 
Q 47.65625 37.796875 51.625 33 
Q 55.609375 28.21875 55.609375 21.1875 
Q 55.609375 10.40625 48.1875 4.484375 
Q 40.765625 -1.421875 27.09375 -1.421875 
Q 22.515625 -1.421875 17.65625 -0.515625 
Q 12.796875 0.390625 7.625 2.203125 
L 7.625 11.71875 
Q 11.71875 9.328125 16.59375 8.109375 
Q 21.484375 6.890625 26.8125 6.890625 
Q 36.078125 6.890625 40.9375 10.546875 
Q 45.796875 14.203125 45.796875 21.1875 
Q 45.796875 27.640625 41.28125 31.265625 
Q 36.765625 34.90625 28.71875 34.90625 
L 20.21875 34.90625 
L 20.21875 43.015625 
L 29.109375 43.015625 
Q 36.375 43.015625 40.234375 45.921875 
Q 44.09375 48.828125 44.09375 54.296875 
Q 44.09375 59.90625 40.109375 62.90625 
Q 36.140625 65.921875 28.71875 65.921875 
Q 24.65625 65.921875 20.015625 65.03125 
Q 15.375 64.15625 9.8125 62.3125 
L 9.8125 71.09375 
Q 15.4375 72.65625 20.34375 73.4375 
Q 25.25 74.21875 29.59375 74.21875 
Q 40.828125 74.21875 47.359375 69.109375 
Q 53.90625 64.015625 53.90625 55.328125 
Q 53.90625 49.265625 50.4375 45.09375 
Q 46.96875 40.921875 40.578125 39.3125 
z
" id="DejaVuSans-51"/>
       <path d="M 10.796875 72.90625 
L 49.515625 72.90625 
L 49.515625 64.59375 
L 19.828125 64.59375 
L 19.828125 46.734375 
Q 21.96875 47.46875 24.109375 47.828125 
Q 26.265625 48.1875 28.421875 48.1875 
Q 40.625 48.1875 47.75 41.5 
Q 54.890625 34.8125 54.890625 23.390625 
Q 54.890625 11.625 47.5625 5.09375 
Q 40.234375 -1.421875 26.90625 -1.421875 
Q 22.3125 -1.421875 17.546875 -0.640625 
Q 12.796875 0.140625 7.71875 1.703125 
L 7.71875 11.625 
Q 12.109375 9.234375 16.796875 8.0625 
Q 21.484375 6.890625 26.703125 6.890625 
Q 35.15625 6.890625 40.078125 11.328125 
Q 45.015625 15.765625 45.015625 23.390625 
Q 45.015625 31 40.078125 35.4375 
Q 35.15625 39.890625 26.703125 39.890625 
Q 22.75 39.890625 18.8125 39.015625 
Q 14.890625 38.140625 10.796875 36.28125 
z
" id="DejaVuSans-53"/>
      </defs>
      <g transform="translate(24.675313 250.358049)scale(0.1 -0.1)">
       <use xlink:href="#DejaVuSans-8722"/>
       <use x="83.789062" xlink:href="#DejaVuSans-51"/>
       <use x="147.412109" xlink:href="#DejaVuSans-53"/>
       <use x="211.035156" xlink:href="#DejaVuSans-48"/>
       <use x="274.658203" xlink:href="#DejaVuSans-48"/>
       <use x="338.28125" xlink:href="#DejaVuSans-48"/>
       <use x="401.904297" xlink:href="#DejaVuSans-48"/>
      </g>
     </g>
    </g>
    <g id="ytick_3">
     <g id="line2d_17">
      <path clip-path="url(#p0fda52ec31)" d="M 78.23 214.135835 
L 450 214.135835 
" style="fill:none;stroke:#b0b0b0;stroke-linecap:square;stroke-width:0.8;"/>
     </g>
     <g id="line2d_18">
      <g>
       <use style="stroke:#000000;stroke-width:0.8;" x="78.23" xlink:href="#m0d531e5526" y="214.135835"/>
      </g>
     </g>
     <g id="text_10">
      <!-- −300000 -->
      <g transform="translate(24.675313 217.935054)scale(0.1 -0.1)">
       <use xlink:href="#DejaVuSans-8722"/>
       <use x="83.789062" xlink:href="#DejaVuSans-51"/>
       <use x="147.412109" xlink:href="#DejaVuSans-48"/>
       <use x="211.035156" xlink:href="#DejaVuSans-48"/>
       <use x="274.658203" xlink:href="#DejaVuSans-48"/>
       <use x="338.28125" xlink:href="#DejaVuSans-48"/>
       <use x="401.904297" xlink:href="#DejaVuSans-48"/>
      </g>
     </g>
    </g>
    <g id="ytick_4">
     <g id="line2d_19">
      <path clip-path="url(#p0fda52ec31)" d="M 78.23 181.71284 
L 450 181.71284 
" style="fill:none;stroke:#b0b0b0;stroke-linecap:square;stroke-width:0.8;"/>
     </g>
     <g id="line2d_20">
      <g>
       <use style="stroke:#000000;stroke-width:0.8;" x="78.23" xlink:href="#m0d531e5526" y="181.71284"/>
      </g>
     </g>
     <g id="text_11">
      <!-- −250000 -->
      <g transform="translate(24.675313 185.512058)scale(0.1 -0.1)">
       <use xlink:href="#DejaVuSans-8722"/>
       <use x="83.789062" xlink:href="#DejaVuSans-50"/>
       <use x="147.412109" xlink:href="#DejaVuSans-53"/>
       <use x="211.035156" xlink:href="#DejaVuSans-48"/>
       <use x="274.658203" xlink:href="#DejaVuSans-48"/>
       <use x="338.28125" xlink:href="#DejaVuSans-48"/>
       <use x="401.904297" xlink:href="#DejaVuSans-48"/>
      </g>
     </g>
    </g>
    <g id="ytick_5">
     <g id="line2d_21">
      <path clip-path="url(#p0fda52ec31)" d="M 78.23 149.289844 
L 450 149.289844 
" style="fill:none;stroke:#b0b0b0;stroke-linecap:square;stroke-width:0.8;"/>
     </g>
     <g id="line2d_22">
      <g>
       <use style="stroke:#000000;stroke-width:0.8;" x="78.23" xlink:href="#m0d531e5526" y="149.289844"/>
      </g>
     </g>
     <g id="text_12">
      <!-- −200000 -->
      <g transform="translate(24.675313 153.089063)scale(0.1 -0.1)">
       <use xlink:href="#DejaVuSans-8722"/>
       <use x="83.789062" xlink:href="#DejaVuSans-50"/>
       <use x="147.412109" xlink:href="#DejaVuSans-48"/>
       <use x="211.035156" xlink:href="#DejaVuSans-48"/>
       <use x="274.658203" xlink:href="#DejaVuSans-48"/>
       <use x="338.28125" xlink:href="#DejaVuSans-48"/>
       <use x="401.904297" xlink:href="#DejaVuSans-48"/>
      </g>
     </g>
    </g>
    <g id="ytick_6">
     <g id="line2d_23">
      <path clip-path="url(#p0fda52ec31)" d="M 78.23 116.866849 
L 450 116.866849 
" style="fill:none;stroke:#b0b0b0;stroke-linecap:square;stroke-width:0.8;"/>
     </g>
     <g id="line2d_24">
      <g>
       <use style="stroke:#000000;stroke-width:0.8;" x="78.23" xlink:href="#m0d531e5526" y="116.866849"/>
      </g>
     </g>
     <g id="text_13">
      <!-- −150000 -->
      <g transform="translate(24.675313 120.666067)scale(0.1 -0.1)">
       <use xlink:href="#DejaVuSans-8722"/>
       <use x="83.789062" xlink:href="#DejaVuSans-49"/>
       <use x="147.412109" xlink:href="#DejaVuSans-53"/>
       <use x="211.035156" xlink:href="#DejaVuSans-48"/>
       <use x="274.658203" xlink:href="#DejaVuSans-48"/>
       <use x="338.28125" xlink:href="#DejaVuSans-48"/>
       <use x="401.904297" xlink:href="#DejaVuSans-48"/>
      </g>
     </g>
    </g>
    <g id="ytick_7">
     <g id="line2d_25">
      <path clip-path="url(#p0fda52ec31)" d="M 78.23 84.443853 
L 450 84.443853 
" style="fill:none;stroke:#b0b0b0;stroke-linecap:square;stroke-width:0.8;"/>
     </g>
     <g id="line2d_26">
      <g>
       <use style="stroke:#000000;stroke-width:0.8;" x="78.23" xlink:href="#m0d531e5526" y="84.443853"/>
      </g>
     </g>
     <g id="text_14">
      <!-- −100000 -->
      <g transform="translate(24.675313 88.243072)scale(0.1 -0.1)">
       <use xlink:href="#DejaVuSans-8722"/>
       <use x="83.789062" xlink:href="#DejaVuSans-49"/>
       <use x="147.412109" xlink:href="#DejaVuSans-48"/>
       <use x="211.035156" xlink:href="#DejaVuSans-48"/>
       <use x="274.658203" xlink:href="#DejaVuSans-48"/>
       <use x="338.28125" xlink:href="#DejaVuSans-48"/>
       <use x="401.904297" xlink:href="#DejaVuSans-48"/>
      </g>
     </g>
    </g>
    <g id="ytick_8">
     <g id="line2d_27">
      <path clip-path="url(#p0fda52ec31)" d="M 78.23 52.020858 
L 450 52.020858 
" style="fill:none;stroke:#b0b0b0;stroke-linecap:square;stroke-width:0.8;"/>
     </g>
     <g id="line2d_28">
      <g>
       <use style="stroke:#000000;stroke-width:0.8;" x="78.23" xlink:href="#m0d531e5526" y="52.020858"/>
      </g>
     </g>
     <g id="text_15">
      <!-- −50000 -->
      <g transform="translate(31.037813 55.820077)scale(0.1 -0.1)">
       <use xlink:href="#DejaVuSans-8722"/>
       <use x="83.789062" xlink:href="#DejaVuSans-53"/>
       <use x="147.412109" xlink:href="#DejaVuSans-48"/>
       <use x="211.035156" xlink:href="#DejaVuSans-48"/>
       <use x="274.658203" xlink:href="#DejaVuSans-48"/>
       <use x="338.28125" xlink:href="#DejaVuSans-48"/>
      </g>
     </g>
    </g>
    <g id="text_16">
     <!-- Reward (Accumulated) -->
     <defs>
      <path d="M 44.390625 34.1875 
Q 47.5625 33.109375 50.5625 29.59375 
Q 53.5625 26.078125 56.59375 19.921875 
L 66.609375 0 
L 56 0 
L 46.6875 18.703125 
Q 43.0625 26.03125 39.671875 28.421875 
Q 36.28125 30.8125 30.421875 30.8125 
L 19.671875 30.8125 
L 19.671875 0 
L 9.8125 0 
L 9.8125 72.90625 
L 32.078125 72.90625 
Q 44.578125 72.90625 50.734375 67.671875 
Q 56.890625 62.453125 56.890625 51.90625 
Q 56.890625 45.015625 53.6875 40.46875 
Q 50.484375 35.9375 44.390625 34.1875 
z
M 19.671875 64.796875 
L 19.671875 38.921875 
L 32.078125 38.921875 
Q 39.203125 38.921875 42.84375 42.21875 
Q 46.484375 45.515625 46.484375 51.90625 
Q 46.484375 58.296875 42.84375 61.546875 
Q 39.203125 64.796875 32.078125 64.796875 
z
" id="DejaVuSans-82"/>
      <path d="M 4.203125 54.6875 
L 13.1875 54.6875 
L 24.421875 12.015625 
L 35.59375 54.6875 
L 46.1875 54.6875 
L 57.421875 12.015625 
L 68.609375 54.6875 
L 77.59375 54.6875 
L 63.28125 0 
L 52.6875 0 
L 40.921875 44.828125 
L 29.109375 0 
L 18.5 0 
z
" id="DejaVuSans-119"/>
      <path d="M 34.28125 27.484375 
Q 23.390625 27.484375 19.1875 25 
Q 14.984375 22.515625 14.984375 16.5 
Q 14.984375 11.71875 18.140625 8.90625 
Q 21.296875 6.109375 26.703125 6.109375 
Q 34.1875 6.109375 38.703125 11.40625 
Q 43.21875 16.703125 43.21875 25.484375 
L 43.21875 27.484375 
z
M 52.203125 31.203125 
L 52.203125 0 
L 43.21875 0 
L 43.21875 8.296875 
Q 40.140625 3.328125 35.546875 0.953125 
Q 30.953125 -1.421875 24.3125 -1.421875 
Q 15.921875 -1.421875 10.953125 3.296875 
Q 6 8.015625 6 15.921875 
Q 6 25.140625 12.171875 29.828125 
Q 18.359375 34.515625 30.609375 34.515625 
L 43.21875 34.515625 
L 43.21875 35.40625 
Q 43.21875 41.609375 39.140625 45 
Q 35.0625 48.390625 27.6875 48.390625 
Q 23 48.390625 18.546875 47.265625 
Q 14.109375 46.140625 10.015625 43.890625 
L 10.015625 52.203125 
Q 14.9375 54.109375 19.578125 55.046875 
Q 24.21875 56 28.609375 56 
Q 40.484375 56 46.34375 49.84375 
Q 52.203125 43.703125 52.203125 31.203125 
z
" id="DejaVuSans-97"/>
      <path d="M 41.109375 46.296875 
Q 39.59375 47.171875 37.8125 47.578125 
Q 36.03125 48 33.890625 48 
Q 26.265625 48 22.1875 43.046875 
Q 18.109375 38.09375 18.109375 28.8125 
L 18.109375 0 
L 9.078125 0 
L 9.078125 54.6875 
L 18.109375 54.6875 
L 18.109375 46.1875 
Q 20.953125 51.171875 25.484375 53.578125 
Q 30.03125 56 36.53125 56 
Q 37.453125 56 38.578125 55.875 
Q 39.703125 55.765625 41.0625 55.515625 
z
" id="DejaVuSans-114"/>
      <path id="DejaVuSans-32"/>
      <path d="M 31 75.875 
Q 24.46875 64.65625 21.28125 53.65625 
Q 18.109375 42.671875 18.109375 31.390625 
Q 18.109375 20.125 21.3125 9.0625 
Q 24.515625 -2 31 -13.1875 
L 23.1875 -13.1875 
Q 15.875 -1.703125 12.234375 9.375 
Q 8.59375 20.453125 8.59375 31.390625 
Q 8.59375 42.28125 12.203125 53.3125 
Q 15.828125 64.359375 23.1875 75.875 
z
" id="DejaVuSans-40"/>
      <path d="M 34.1875 63.1875 
L 20.796875 26.90625 
L 47.609375 26.90625 
z
M 28.609375 72.90625 
L 39.796875 72.90625 
L 67.578125 0 
L 57.328125 0 
L 50.6875 18.703125 
L 17.828125 18.703125 
L 11.1875 0 
L 0.78125 0 
z
" id="DejaVuSans-65"/>
      <path d="M 48.78125 52.59375 
L 48.78125 44.1875 
Q 44.96875 46.296875 41.140625 47.34375 
Q 37.3125 48.390625 33.40625 48.390625 
Q 24.65625 48.390625 19.8125 42.84375 
Q 14.984375 37.3125 14.984375 27.296875 
Q 14.984375 17.28125 19.8125 11.734375 
Q 24.65625 6.203125 33.40625 6.203125 
Q 37.3125 6.203125 41.140625 7.25 
Q 44.96875 8.296875 48.78125 10.40625 
L 48.78125 2.09375 
Q 45.015625 0.34375 40.984375 -0.53125 
Q 36.96875 -1.421875 32.421875 -1.421875 
Q 20.0625 -1.421875 12.78125 6.34375 
Q 5.515625 14.109375 5.515625 27.296875 
Q 5.515625 40.671875 12.859375 48.328125 
Q 20.21875 56 33.015625 56 
Q 37.15625 56 41.109375 55.140625 
Q 45.0625 54.296875 48.78125 52.59375 
z
" id="DejaVuSans-99"/>
      <path d="M 8.5 21.578125 
L 8.5 54.6875 
L 17.484375 54.6875 
L 17.484375 21.921875 
Q 17.484375 14.15625 20.5 10.265625 
Q 23.53125 6.390625 29.59375 6.390625 
Q 36.859375 6.390625 41.078125 11.03125 
Q 45.3125 15.671875 45.3125 23.6875 
L 45.3125 54.6875 
L 54.296875 54.6875 
L 54.296875 0 
L 45.3125 0 
L 45.3125 8.40625 
Q 42.046875 3.421875 37.71875 1 
Q 33.40625 -1.421875 27.6875 -1.421875 
Q 18.265625 -1.421875 13.375 4.4375 
Q 8.5 10.296875 8.5 21.578125 
z
M 31.109375 56 
z
" id="DejaVuSans-117"/>
      <path d="M 52 44.1875 
Q 55.375 50.25 60.0625 53.125 
Q 64.75 56 71.09375 56 
Q 79.640625 56 84.28125 50.015625 
Q 88.921875 44.046875 88.921875 33.015625 
L 88.921875 0 
L 79.890625 0 
L 79.890625 32.71875 
Q 79.890625 40.578125 77.09375 44.375 
Q 74.3125 48.1875 68.609375 48.1875 
Q 61.625 48.1875 57.5625 43.546875 
Q 53.515625 38.921875 53.515625 30.90625 
L 53.515625 0 
L 44.484375 0 
L 44.484375 32.71875 
Q 44.484375 40.625 41.703125 44.40625 
Q 38.921875 48.1875 33.109375 48.1875 
Q 26.21875 48.1875 22.15625 43.53125 
Q 18.109375 38.875 18.109375 30.90625 
L 18.109375 0 
L 9.078125 0 
L 9.078125 54.6875 
L 18.109375 54.6875 
L 18.109375 46.1875 
Q 21.1875 51.21875 25.484375 53.609375 
Q 29.78125 56 35.6875 56 
Q 41.65625 56 45.828125 52.96875 
Q 50 49.953125 52 44.1875 
z
" id="DejaVuSans-109"/>
      <path d="M 9.421875 75.984375 
L 18.40625 75.984375 
L 18.40625 0 
L 9.421875 0 
z
" id="DejaVuSans-108"/>
      <path d="M 18.3125 70.21875 
L 18.3125 54.6875 
L 36.8125 54.6875 
L 36.8125 47.703125 
L 18.3125 47.703125 
L 18.3125 18.015625 
Q 18.3125 11.328125 20.140625 9.421875 
Q 21.96875 7.515625 27.59375 7.515625 
L 36.8125 7.515625 
L 36.8125 0 
L 27.59375 0 
Q 17.1875 0 13.234375 3.875 
Q 9.28125 7.765625 9.28125 18.015625 
L 9.28125 47.703125 
L 2.6875 47.703125 
L 2.6875 54.6875 
L 9.28125 54.6875 
L 9.28125 70.21875 
z
" id="DejaVuSans-116"/>
      <path d="M 8.015625 75.875 
L 15.828125 75.875 
Q 23.140625 64.359375 26.78125 53.3125 
Q 30.421875 42.28125 30.421875 31.390625 
Q 30.421875 20.453125 26.78125 9.375 
Q 23.140625 -1.703125 15.828125 -13.1875 
L 8.015625 -13.1875 
Q 14.5 -2 17.703125 9.0625 
Q 20.90625 20.125 20.90625 31.390625 
Q 20.90625 42.671875 17.703125 53.65625 
Q 14.5 64.65625 8.015625 75.875 
z
" id="DejaVuSans-41"/>
     </defs>
     <g transform="translate(18.595625 221.750156)rotate(-90)scale(0.1 -0.1)">
      <use xlink:href="#DejaVuSans-82"/>
      <use x="69.419922" xlink:href="#DejaVuSans-101"/>
      <use x="130.943359" xlink:href="#DejaVuSans-119"/>
      <use x="212.730469" xlink:href="#DejaVuSans-97"/>
      <use x="274.009766" xlink:href="#DejaVuSans-114"/>
      <use x="315.107422" xlink:href="#DejaVuSans-100"/>
      <use x="378.583984" xlink:href="#DejaVuSans-32"/>
      <use x="410.371094" xlink:href="#DejaVuSans-40"/>
      <use x="449.384766" xlink:href="#DejaVuSans-65"/>
      <use x="517.777344" xlink:href="#DejaVuSans-99"/>
      <use x="572.757812" xlink:href="#DejaVuSans-99"/>
      <use x="627.738281" xlink:href="#DejaVuSans-117"/>
      <use x="691.117188" xlink:href="#DejaVuSans-109"/>
      <use x="788.529297" xlink:href="#DejaVuSans-117"/>
      <use x="851.908203" xlink:href="#DejaVuSans-108"/>
      <use x="879.691406" xlink:href="#DejaVuSans-97"/>
      <use x="940.970703" xlink:href="#DejaVuSans-116"/>
      <use x="980.179688" xlink:href="#DejaVuSans-101"/>
      <use x="1041.703125" xlink:href="#DejaVuSans-100"/>
      <use x="1105.179688" xlink:href="#DejaVuSans-41"/>
     </g>
    </g>
   </g>
   <g id="line2d_29">
    <path clip-path="url(#p0fda52ec31)" d="M 95.128636 162.033702 
L 95.466947 144.94192 
L 95.805258 150.32738 
L 96.143569 146.561449 
L 96.481881 166.517803 
L 96.820192 132.566063 
L 97.158503 141.454827 
L 97.496814 145.360177 
L 97.835125 140.172498 
L 98.173436 164.739401 
L 98.511747 130.392101 
L 99.188369 183.554466 
L 99.52668 161.586265 
L 100.203302 142.926831 
L 100.541613 172.922965 
L 100.879924 151.38437 
L 101.218235 162.77781 
L 101.556546 132.655226 
L 101.894857 186.957259 
L 102.233168 146.123739 
L 102.571479 121.504958 
L 102.90979 167.279743 
L 103.248101 119.014872 
L 103.586412 99.535137 
L 103.924723 195.1927 
L 104.263034 145.856249 
L 104.601345 127.924711 
L 104.939656 167.464554 
L 105.277968 137.761848 
L 105.616279 171.614698 
L 105.95459 139.352196 
L 106.292901 120.328003 
L 106.631212 131.027592 
L 106.969523 167.699621 
L 107.307834 132.728178 
L 107.646145 139.572672 
L 107.984456 126.673184 
L 108.322767 166.19033 
L 108.661078 156.199184 
L 108.999389 174.300943 
L 109.3377 124.074481 
L 109.676011 172.362048 
L 110.014322 134.294209 
L 110.352633 128.749877 
L 110.690944 151.87882 
L 111.029255 111.63702 
L 111.367566 160.647619 
L 111.705877 146.705731 
L 112.044188 187.151797 
L 112.382499 153.778808 
L 112.72081 139.016618 
L 113.059121 143.387238 
L 113.397432 140.936059 
L 113.735743 136.302813 
L 114.074055 159.279369 
L 114.412366 146.05565 
L 114.750677 149.046672 
L 115.088988 125.758855 
L 115.76561 182.648243 
L 116.103921 173.801629 
L 116.442232 170.497725 
L 116.780543 174.587886 
L 117.118854 134.671937 
L 117.457165 135.289595 
L 117.795476 144.517179 
L 118.133787 129.270266 
L 118.810409 203.885305 
L 119.14872 112.08932 
L 119.487031 111.638641 
L 119.825342 131.0665 
L 120.163653 137.246322 
L 120.501964 150.043679 
L 120.840275 126.00527 
L 121.178586 118.183222 
L 121.516897 151.053655 
L 121.855208 158.021357 
L 122.193519 112.121743 
L 122.53183 149.195817 
L 122.870142 120.225871 
L 123.208453 113.194945 
L 123.546764 145.601728 
L 123.885075 108.201803 
L 124.223386 143.513687 
L 124.561697 121.328253 
L 124.900008 150.390605 
L 125.238319 161.683534 
L 125.914941 106.606592 
L 126.253252 124.927205 
L 126.591563 116.151922 
L 126.929874 127.790156 
L 127.606496 121.396341 
L 127.944807 141.691515 
L 128.283118 178.763968 
L 128.621429 143.392101 
L 128.95974 143.918975 
L 129.298051 148.227991 
L 129.636362 221.510445 
L 129.974673 113.38624 
L 130.312984 203.869093 
L 130.651295 116.605844 
L 130.989606 137.231732 
L 131.327917 125.199559 
L 131.666229 108.631408 
L 132.00454 132.901641 
L 132.342851 118.898149 
L 132.681162 137.684033 
L 133.019473 98.445724 
L 133.357784 134.970228 
L 133.696095 94.397713 
L 134.034406 141.759603 
L 134.372717 138.350325 
L 134.711028 149.815097 
L 135.049339 157.385866 
L 135.38765 127.041185 
L 135.725961 119.045674 
L 136.402583 141.866599 
L 136.740894 97.460065 
L 137.079205 142.774443 
L 137.417516 114.952271 
L 137.755827 115.967111 
L 138.094138 85.502464 
L 138.432449 141.694757 
L 138.77076 95.477399 
L 139.109071 147.172623 
L 139.785693 205.973346 
L 140.124004 155.281614 
L 140.462315 136.951273 
L 140.800627 100.909872 
L 141.138938 134.423901 
L 141.477249 116.998162 
L 141.81556 117.692014 
L 142.153871 106.272635 
L 142.492182 126.297077 
L 142.830493 123.617316 
L 143.168804 130.638516 
L 143.507115 153.459441 
L 143.845426 102.547233 
L 144.522048 182.47478 
L 144.860359 119.681165 
L 145.19867 101.219511 
L 145.536981 181.085455 
L 145.875292 108.793523 
L 146.551914 134.74651 
L 146.890225 142.22001 
L 147.228536 125.598361 
L 147.566847 115.380254 
L 147.905158 114.804746 
L 148.243469 140.623177 
L 148.58178 139.310046 
L 148.920091 112.278995 
L 149.258402 110.649739 
L 149.596714 152.601853 
L 149.935025 104.55908 
L 150.273336 85.862359 
L 150.611647 92.353443 
L 150.949958 113.11875 
L 151.288269 153.587512 
L 151.62658 137.272261 
L 151.964891 141.501841 
L 152.303202 108.748131 
L 152.641513 106.997289 
L 152.979824 168.117878 
L 153.318135 154.080342 
L 153.656446 109.098299 
L 153.994757 113.971475 
L 154.333068 138.55459 
L 154.671379 120.373396 
L 155.00969 124.387363 
L 155.348001 110.844277 
L 156.024623 136.549228 
L 156.362934 100.31491 
L 156.701245 109.4663 
L 157.039556 110.544365 
L 157.377867 124.064754 
L 157.716178 128.715832 
L 158.054489 123.69351 
L 158.392801 170.496104 
L 158.731112 158.734663 
L 159.069423 177.233603 
L 159.407734 104.053281 
L 159.746045 117.863856 
L 160.084356 204.691016 
L 160.422667 146.117254 
L 160.760978 131.327505 
L 161.099289 159.592251 
L 161.4376 145.079718 
L 161.775911 98.458693 
L 162.114222 125.167136 
L 162.452533 114.367036 
L 162.790844 91.411555 
L 163.129155 97.019112 
L 163.467466 88.955513 
L 163.805777 90.725809 
L 164.144088 104.512066 
L 164.482399 109.322018 
L 165.159021 101.131969 
L 165.497332 110.160152 
L 165.835643 108.389857 
L 166.173954 148.344714 
L 166.512265 126.068495 
L 166.850576 112.90638 
L 167.188888 121.584395 
L 167.527199 105.752246 
L 167.86551 67.473658 
L 168.203821 131.055152 
L 168.542132 86.073109 
L 168.880443 73.604846 
L 169.557065 113.366786 
L 169.895376 109.28311 
L 170.233687 137.371151 
L 170.571998 133.652233 
L 170.910309 95.69139 
L 171.586931 153.031458 
L 171.925242 115.845524 
L 172.263553 131.368033 
L 172.601864 81.525784 
L 172.940175 107.994296 
L 173.278486 91.286727 
L 173.616797 90.96736 
L 173.955108 171.173745 
L 174.293419 94.767335 
L 174.63173 122.234476 
L 174.970041 119.74439 
L 175.308352 93.720072 
L 175.646663 88.898773 
L 175.984975 69.900519 
L 176.323286 115.946036 
L 176.661597 134.934563 
L 176.999908 113.292213 
L 177.338219 199.130473 
L 177.67653 109.210158 
L 178.014841 128.967111 
L 178.353152 123.082337 
L 178.691463 83.213401 
L 179.029774 104.409934 
L 179.368085 110.583272 
L 179.706396 160.407689 
L 180.044707 73.48326 
L 180.721329 136.750251 
L 181.05964 120.102664 
L 181.397951 80.363419 
L 181.736262 95.312041 
L 182.074573 167.92334 
L 182.751195 83.150176 
L 183.089506 112.308176 
L 183.427817 100.232231 
L 183.766128 137.18634 
L 184.104439 129.442107 
L 184.44275 116.37564 
L 184.781062 88.593997 
L 185.119373 111.737531 
L 185.457684 111.562447 
L 185.795995 138.095805 
L 186.134306 128.151672 
L 186.472617 111.956386 
L 186.810928 142.082212 
L 187.149239 140.099546 
L 187.48755 155.048168 
L 187.825861 109.918601 
L 188.164172 81.156162 
L 188.502483 70.668944 
L 188.840794 101.963619 
L 189.179105 102.469418 
L 189.517416 69.999409 
L 189.855727 73.024474 
L 190.194038 79.666325 
L 190.532349 136.811854 
L 190.87066 141.793648 
L 191.208971 69.610333 
L 191.547282 97.803749 
L 191.885593 89.068994 
L 192.223904 105.993797 
L 192.562215 107.888921 
L 193.238837 63.659092 
L 193.577149 110.409809 
L 193.91546 116.468046 
L 194.253771 92.491241 
L 194.592082 81.329625 
L 194.930393 86.496229 
L 195.268704 79.612827 
L 195.607015 114.010383 
L 196.283637 79.940299 
L 196.621948 132.006766 
L 196.960259 94.666824 
L 197.636881 83.346335 
L 197.975192 69.258543 
L 198.313503 74.277623 
L 198.651814 105.136209 
L 198.990125 108.532518 
L 199.328436 83.821332 
L 199.666747 96.109647 
L 200.005058 77.814972 
L 200.343369 81.721943 
L 201.019991 155.443729 
L 201.358302 128.884432 
L 201.696613 125.702115 
L 202.034924 140.861486 
L 202.373236 114.031458 
L 202.711547 60.783172 
L 203.049858 76.902265 
L 203.72648 90.232979 
L 204.064791 116.048168 
L 204.403102 79.147557 
L 204.741413 110.529774 
L 205.079724 115.701242 
L 205.418035 75.099546 
L 205.756346 59.946659 
L 206.094657 86.022853 
L 206.432968 92.886801 
L 206.771279 128.328378 
L 207.10959 104.343467 
L 207.447901 197.13808 
L 207.786212 129.766337 
L 208.462834 68.514436 
L 208.801145 86.421656 
L 209.139456 126.590505 
L 209.477767 97.0872 
L 209.816078 144.907876 
L 210.154389 74.472161 
L 210.4927 99.184968 
L 210.831011 80.045674 
L 211.169323 70.801878 
L 211.507634 93.086203 
L 211.845945 152.917977 
L 212.184256 148.334987 
L 212.522567 80.817341 
L 212.860878 81.882437 
L 213.199189 71.202302 
L 213.5375 66.961374 
L 214.214122 121.671937 
L 214.552433 94.336109 
L 214.890744 136.521669 
L 215.229055 112.901516 
L 215.567366 150.551099 
L 216.243988 67.770328 
L 216.582299 86.319524 
L 216.92061 89.159778 
L 217.258921 115.367285 
L 217.597232 113.953643 
L 217.935543 76.435373 
L 218.273854 107.133466 
L 218.612165 179.650737 
L 218.950476 95.307178 
L 219.288787 71.095306 
L 219.627098 92.160526 
L 219.96541 67.3926 
L 220.303721 102.130597 
L 220.642032 83.960751 
L 220.980343 71.928577 
L 221.318654 99.718326 
L 221.656965 87.546734 
L 221.995276 120.454453 
L 222.333587 76.344589 
L 222.671898 68.345836 
L 223.010209 133.796516 
L 223.34852 141.842282 
L 223.686831 91.032206 
L 224.025142 96.323639 
L 224.363453 124.001529 
L 224.701764 87.549976 
L 225.040075 117.552595 
L 225.378386 108.513064 
L 225.716697 114.829063 
L 226.055008 107.444726 
L 226.393319 81.480392 
L 226.73163 103.215147 
L 227.069941 65.29159 
L 227.408252 60.016369 
L 227.746563 82.744888 
L 228.084874 74.781801 
L 228.423185 79.41991 
L 228.761496 142.202177 
L 229.438119 115.380254 
L 230.114741 61.357059 
L 230.453052 108.984819 
L 231.129674 72.325759 
L 231.467985 107.477149 
L 231.806296 86.298449 
L 232.144607 131.034077 
L 232.482918 99.100668 
L 232.821229 109.573296 
L 233.15954 114.334613 
L 233.497851 127.096304 
L 233.836162 78.649864 
L 234.174473 89.06413 
L 234.512784 69.28124 
L 234.851095 101.214648 
L 235.189406 94.621432 
L 235.527717 72.505706 
L 236.204339 81.59063 
L 236.54265 84.260663 
L 236.880961 85.575416 
L 237.219272 94.36529 
L 237.557583 72.022604 
L 237.895895 67.433129 
L 238.234206 89.98008 
L 238.572517 81.099421 
L 238.910828 134.230984 
L 239.249139 101.887425 
L 239.58745 107.739776 
L 239.925761 63.582898 
L 240.264072 136.137456 
L 240.602383 156.701741 
L 240.940694 87.755862 
L 241.279005 75.201679 
L 241.617316 121.910246 
L 241.955627 70.557084 
L 242.293938 65.435872 
L 242.632249 63.067372 
L 242.97056 79.679294 
L 243.308871 86.544863 
L 243.647182 100.068495 
L 243.985493 70.399833 
L 244.323804 144.572298 
L 244.662115 99.73778 
L 245.000426 71.28336 
L 245.338737 76.099795 
L 245.677048 92.56095 
L 246.015359 65.790904 
L 246.35367 108.091565 
L 246.691982 83.16963 
L 247.030293 138.501092 
L 247.368604 62.733416 
L 247.706915 115.766088 
L 248.383537 82.607091 
L 248.721848 71.108275 
L 249.060159 74.514311 
L 249.39847 90.553967 
L 249.736781 92.022729 
L 250.075092 114.031458 
L 250.413403 115.725559 
L 250.751714 94.225871 
L 251.090025 80.387737 
L 251.428336 112.872336 
L 251.766647 68.384744 
L 252.104958 70.753244 
L 252.443269 81.752745 
L 252.78158 75.566437 
L 253.119891 98.935311 
L 253.458202 66.543118 
L 253.796513 97.53788 
L 254.134824 65.074356 
L 254.473135 109.944539 
L 254.811446 104.229986 
L 255.149757 89.72718 
L 255.488069 133.425272 
L 255.82638 112.437868 
L 256.164691 125.687525 
L 256.503002 111.319274 
L 256.841313 70.148555 
L 257.179624 121.894034 
L 257.517935 126.571051 
L 257.856246 71.273633 
L 258.194557 105.523664 
L 258.532868 76.141945 
L 258.871179 86.129849 
L 259.20949 108.556835 
L 259.547801 106.676301 
L 259.886112 65.330498 
L 260.224423 90.656099 
L 260.562734 93.188335 
L 260.901045 81.434999 
L 261.239356 86.645375 
L 261.577667 88.120621 
L 261.915978 79.612827 
L 262.254289 59.259292 
L 262.5926 123.098548 
L 262.930911 118.622554 
L 263.269222 80.690892 
L 263.607533 64.442107 
L 263.945844 86.293585 
L 264.284156 58.220135 
L 264.622467 63.184095 
L 264.960778 59.622429 
L 265.299089 60.283858 
L 265.975711 77.351323 
L 266.314022 106.985941 
L 266.990644 48.652109 
L 267.328955 93.087824 
L 267.667266 86.178484 
L 268.005577 71.233104 
L 268.343888 121.0559 
L 268.682199 75.530772 
L 269.02051 91.664454 
L 269.358821 63.104659 
L 269.697132 83.234476 
L 270.035443 110.056399 
L 270.373754 87.486751 
L 270.712065 83.699746 
L 271.050376 89.863357 
L 271.388687 64.850637 
L 271.726998 62.45782 
L 272.065309 56.915109 
L 272.40362 65.766587 
L 272.741931 101.397838 
L 273.080243 90.996541 
L 273.418554 57.362546 
L 273.756865 72.815346 
L 274.433487 57.837543 
L 274.771798 90.766337 
L 275.110109 65.518551 
L 275.44842 77.972223 
L 275.786731 81.514436 
L 276.125042 66.784669 
L 276.463353 82.290966 
L 276.801664 81.144814 
L 277.139975 83.287974 
L 277.816597 119.94217 
L 278.154908 75.360551 
L 278.493219 70.740274 
L 278.83153 71.687026 
L 279.169841 65.54611 
L 279.508152 72.549477 
L 279.846463 119.425023 
L 280.184774 100.572672 
L 280.523085 68.457695 
L 281.199707 56.440112 
L 281.538018 74.438117 
L 281.87633 52.975715 
L 282.214641 47.390854 
L 282.552952 61.321394 
L 282.891263 82.579531 
L 283.229574 84.764841 
L 283.567885 94.078346 
L 283.906196 98.074481 
L 284.244507 61.352196 
L 284.582818 61.823951 
L 284.921129 103.682038 
L 285.25944 58.468171 
L 285.597751 60.261162 
L 285.936062 55.778683 
L 286.274373 65.270515 
L 286.612684 57.91698 
L 286.950995 86.531894 
L 287.289306 61.929325 
L 287.627617 71.912366 
L 287.965928 66.402078 
L 288.304239 99.227118 
L 288.64255 63.545612 
L 288.980861 72.192825 
L 289.319172 62.07685 
L 289.657483 111.447345 
L 289.995794 77.837668 
L 290.334105 127.000656 
L 290.672417 128.983322 
L 291.010728 82.483883 
L 291.349039 92.718202 
L 291.68735 91.148929 
L 292.025661 53.466924 
L 292.363972 106.412054 
L 292.702283 94.042681 
L 293.040594 87.121993 
L 293.378905 114.736658 
L 293.717216 106.416917 
L 294.055527 60.703736 
L 294.393838 57.816468 
L 294.732149 88.770702 
L 295.07046 83.965614 
L 295.408771 102.843903 
L 295.747082 102.597488 
L 296.085393 131.731171 
L 296.423704 93.754116 
L 296.762015 102.192201 
L 297.100326 67.930822 
L 297.438637 89.89578 
L 297.776948 139.024724 
L 298.115259 81.598736 
L 298.45357 120.778683 
L 298.791881 70.030211 
L 299.130192 67.898399 
L 299.468504 84.053156 
L 299.806815 109.685155 
L 300.145126 80.019736 
L 300.483437 86.634027 
L 300.821748 113.076601 
L 301.160059 116.302689 
L 301.49837 104.708225 
L 301.836681 109.871587 
L 302.174992 72.072859 
L 302.513303 78.458568 
L 302.851614 65.969231 
L 303.189925 86.197937 
L 303.528236 75.028215 
L 303.866547 79.288597 
L 304.204858 103.763095 
L 304.543169 68.264779 
L 304.88148 84.542743 
L 305.219791 90.06438 
L 305.558102 69.198561 
L 305.896413 92.009759 
L 306.234724 71.254179 
L 306.573035 77.870091 
L 307.587968 62.475653 
L 308.602902 85.747258 
L 308.941213 72.324138 
L 309.279524 64.677174 
L 309.617835 84.009385 
L 309.956146 48.903387 
L 310.294457 54.640636 
L 310.632768 75.002277 
L 310.971079 67.066749 
L 311.30939 63.916855 
L 311.647701 47.908001 
L 311.986012 151.379506 
L 312.324323 85.15878 
L 312.662634 84.335236 
L 313.000945 62.791777 
L 313.339256 71.505457 
L 313.677567 74.822329 
L 314.015878 58.967485 
L 314.354189 68.658718 
L 314.6925 61.083085 
L 315.030811 57.670565 
L 315.369122 85.45383 
L 315.707433 157.846273 
L 316.384055 60.937182 
L 316.722366 51.3189 
L 317.060677 67.151049 
L 317.398989 100.535386 
L 317.7373 90.091939 
L 318.075611 64.849016 
L 318.413922 98.011256 
L 318.752233 60.770203 
L 319.428855 77.275129 
L 319.767166 84.813475 
L 320.105477 111.111767 
L 320.443788 55.165889 
L 320.782099 58.080716 
L 321.12041 72.029088 
L 321.458721 49.522666 
L 321.797032 82.376887 
L 322.135343 72.466799 
L 322.473654 49.367036 
L 322.811965 58.855625 
L 323.150276 108.905382 
L 323.488587 131.160526 
L 323.826898 161.459815 
L 324.165209 147.504958 
L 324.50352 99.676177 
L 324.841831 70.808363 
L 325.180142 88.522666 
L 325.518453 54.314785 
L 325.856764 61.537007 
L 326.195076 82.683285 
L 326.533387 83.506829 
L 326.871698 89.117628 
L 327.210009 57.404696 
L 327.54832 66.215645 
L 327.886631 49.354067 
L 328.224942 53.084332 
L 328.563253 63.879569 
L 328.901564 67.786539 
L 329.239875 100.762347 
L 329.916497 56.686527 
L 330.254808 108.825946 
L 330.593119 121.900519 
L 330.93143 109.01562 
L 331.269741 74.134962 
L 331.608052 67.71683 
L 331.946363 89.425647 
L 332.284674 67.46231 
L 332.622985 100.590505 
L 332.961296 63.579656 
L 333.299607 72.442482 
L 333.637918 65.20729 
L 333.976229 65.550974 
L 334.31454 55.161025 
L 334.652851 58.109896 
L 334.991163 70.48089 
L 335.329474 45.186091 
L 336.006096 85.348455 
L 336.344407 106.823826 
L 336.682718 57.002651 
L 337.021029 85.996915 
L 337.35934 63.292712 
L 337.697651 69.164517 
L 338.035962 90.325385 
L 338.374273 68.755987 
L 338.712584 82.743267 
L 339.050895 56.788659 
L 339.389206 52.499097 
L 339.727517 55.935935 
L 340.065828 74.292213 
L 340.404139 123.586515 
L 340.74245 98.376014 
L 341.080761 106.204547 
L 341.419072 71.998287 
L 341.757383 85.974219 
L 342.095694 66.50421 
L 342.434005 70.59275 
L 342.772316 70.552221 
L 343.110627 64.711218 
L 343.448938 51.130847 
L 344.125561 62.658843 
L 344.463872 51.706355 
L 344.802183 73.570802 
L 345.140494 68.856498 
L 345.478805 60.679419 
L 345.817116 143.443978 
L 346.155427 125.024474 
L 346.493738 67.4769 
L 346.832049 98.301442 
L 347.17036 164.599983 
L 347.508671 54.797888 
L 347.846982 118.604721 
L 348.185293 71.0872 
L 348.523604 49.311917 
L 348.861915 84.450338 
L 349.200226 61.170627 
L 349.538537 162.187712 
L 349.876848 101.465926 
L 350.55347 52.57367 
L 350.891781 69.182349 
L 351.230092 64.130847 
L 351.568403 109.177735 
L 351.906714 62.375142 
L 352.245025 140.829063 
L 352.921648 50.526158 
L 353.259959 106.217516 
L 353.59827 54.215895 
L 353.936581 58.980454 
L 354.613203 107.702489 
L 354.951514 66.502589 
L 355.289825 56.722192 
L 355.628136 90.706355 
L 355.966447 88.060638 
L 356.304758 82.245574 
L 356.643069 82.581152 
L 356.98138 59.633777 
L 357.319691 95.008886 
L 357.658002 145.410433 
L 357.996313 77.172997 
L 358.334624 103.722566 
L 358.672935 52.275378 
L 359.011246 83.049665 
L 359.349557 47.353568 
L 359.687868 103.02223 
L 360.026179 53.393972 
L 360.36449 52.865477 
L 360.702801 97.338479 
L 361.041112 85.560826 
L 361.379424 122.433877 
L 361.717735 79.915982 
L 362.056046 89.453206 
L 362.394357 61.11875 
L 362.732668 64.724188 
L 363.070979 82.957259 
L 363.40929 55.292338 
L 363.747601 128.083584 
L 364.085912 53.168632 
L 364.424223 75.422155 
L 364.762534 76.425647 
L 365.439156 100.515932 
L 365.777467 193.182474 
L 366.115778 84.665951 
L 366.454089 78.265652 
L 366.7924 67.329375 
L 367.130711 87.618065 
L 367.469022 178.775316 
L 367.807333 171.003524 
L 368.483955 52.145686 
L 368.822266 52.157035 
L 369.160577 102.678546 
L 369.498888 86.556211 
L 369.837199 87.389482 
L 370.175511 71.699995 
L 370.513822 72.332243 
L 370.852133 99.04717 
L 371.190444 135.610582 
L 371.528755 59.836421 
L 371.867066 51.030335 
L 372.205377 58.242831 
L 372.543688 58.852383 
L 372.881999 84.558955 
L 373.22031 77.943043 
L 373.558621 98.36953 
L 373.896932 70.262035 
L 374.235243 62.892288 
L 374.573554 87.773695 
L 374.911865 56.078596 
L 375.250176 69.417416 
L 375.588487 115.377012 
L 375.926798 89.962247 
L 376.265109 46.140948 
L 376.60342 73.039065 
L 376.941731 50.266774 
L 377.280042 99.034201 
L 377.618353 65.119748 
L 377.956664 45.701616 
L 378.294975 51.913862 
L 378.633286 61.488373 
L 378.971598 150.401953 
L 379.309909 54.43475 
L 379.64822 96.595992 
L 379.986531 187.659217 
L 380.324842 116.124362 
L 380.663153 78.335361 
L 381.001464 82.21153 
L 381.339775 49.974967 
L 382.016397 89.428889 
L 382.354708 56.214772 
L 382.693019 49.629662 
L 383.03133 61.939052 
L 383.369641 65.875204 
L 383.707952 77.302689 
L 384.046263 56.15479 
L 384.384574 82.25368 
L 384.722885 78.964367 
L 385.061196 41.313164 
L 385.399507 60.209285 
L 385.737818 70.326881 
L 386.076129 56.376887 
L 386.41444 91.854129 
L 386.752751 106.493111 
L 387.091062 57.322018 
L 387.429373 61.323015 
L 388.105996 55.550101 
L 388.444307 48.394346 
L 388.782618 54.486627 
L 389.120929 47.955014 
L 389.45924 60.424898 
L 389.797551 65.880067 
L 390.135862 91.554216 
L 390.474173 68.837045 
L 390.812484 96.921843 
L 391.150795 156.661212 
L 391.489106 53.607964 
L 391.827417 45.181227 
L 392.504039 89.462933 
L 392.84235 68.287475 
L 393.180661 56.894034 
L 393.518972 56.501716 
L 394.195594 63.934688 
L 394.533905 48.162522 
L 394.872216 52.889794 
L 395.210527 103.98195 
L 395.548838 98.463557 
L 395.887149 50.153293 
L 396.22546 59.317653 
L 396.563771 39.670939 
L 396.902083 62.947407 
L 397.240394 75.678297 
L 397.917016 47.791278 
L 398.255327 115.172747 
L 398.593638 50.524537 
L 398.931949 122.60734 
L 399.27026 65.815221 
L 399.608571 55.616568 
L 399.946882 80.261287 
L 400.285193 59.520297 
L 400.623504 80.394221 
L 400.961815 127.615072 
L 401.300126 60.41355 
L 401.638437 52.55908 
L 401.976748 59.787787 
L 402.65337 84.051535 
L 402.991681 43.715708 
L 403.329992 43.232605 
L 403.668303 46.444103 
L 404.006614 45.573545 
L 404.344925 115.132218 
L 405.021547 58.631907 
L 405.359858 96.111268 
L 405.69817 51.50209 
L 406.036481 44.375516 
L 406.374792 62.64101 
L 406.713103 48.960127 
L 407.051414 44.963993 
L 407.389725 115.420783 
L 407.728036 44.831059 
L 408.066347 83.670565 
L 408.404658 64.71284 
L 408.742969 65.445599 
L 409.08128 56.98644 
L 409.419591 53.176738 
L 409.757902 85.870465 
L 410.096213 56.007265 
L 410.434524 87.697501 
L 410.772835 58.323888 
L 411.449457 44.101541 
L 411.787768 68.316655 
L 412.126079 68.23884 
L 412.46439 91.596366 
L 412.802701 42.984569 
L 413.141012 61.451086 
L 413.479323 47.619436 
L 413.817634 46.847769 
L 414.155945 52.280242 
L 414.832568 149.108275 
L 415.170879 71.878321 
L 415.50919 51.255675 
L 415.847501 55.637643 
L 416.185812 77.085455 
L 416.524123 75.731794 
L 416.862434 59.982324 
L 417.200745 51.27675 
L 417.539056 64.299446 
L 417.877367 38.085455 
L 418.215678 83.529525 
L 418.553989 51.061137 
L 418.8923 40.09568 
L 419.568922 68.903512 
L 419.907233 59.844527 
L 420.245544 150.803998 
L 420.583855 49.470789 
L 420.922166 75.27463 
L 421.260477 72.413301 
L 421.598788 98.943417 
L 421.937099 88.342719 
L 422.27541 145.794645 
L 422.613721 50.295955 
L 422.952032 81.285854 
L 423.290344 68.934314 
L 423.628655 94.657097 
L 423.966966 79.257795 
L 424.305277 95.039688 
L 424.981899 147.467672 
L 425.32021 84.237967 
L 425.658521 65.831433 
L 426.335143 109.394969 
L 426.673454 290.994545 
L 427.011765 63.699621 
L 427.350076 68.185342 
L 427.688387 62.850138 
L 428.026698 42.535511 
L 428.365009 67.42016 
L 428.70332 104.651485 
L 429.041631 50.821207 
L 429.379942 56.198561 
L 429.718253 57.239339 
L 430.056564 135.064255 
L 430.394875 64.416169 
L 430.733186 102.534264 
L 431.071497 84.957758 
L 431.409808 108.560077 
L 431.748119 65.396965 
L 432.086431 60.043928 
L 432.424742 95.539002 
L 432.763053 102.012253 
L 433.101364 86.016369 
L 433.101364 86.016369 
" style="fill:none;stroke:#1f77b4;stroke-linecap:square;stroke-width:0.8;"/>
   </g>
   <g id="line2d_30">
    <path clip-path="url(#p0fda52ec31)" d="M 111.705877 148.249131 
L 112.044188 148.751493 
L 112.382499 148.92823 
L 112.72081 148.702015 
L 113.059121 148.638531 
L 113.397432 148.126896 
L 113.735743 148.201631 
L 114.074055 148.558122 
L 114.412366 148.572031 
L 114.750677 148.749515 
L 115.088988 147.969904 
L 115.76561 148.931213 
L 116.103921 148.736157 
L 116.442232 148.914386 
L 116.780543 149.340943 
L 117.118854 149.175845 
L 117.457165 148.423177 
L 117.795476 148.285834 
L 118.133787 147.615683 
L 118.472098 148.341893 
L 118.810409 148.680454 
L 119.14872 147.999766 
L 119.487031 147.802439 
L 119.825342 147.078174 
L 120.163653 147.442803 
L 120.501964 148.452974 
L 120.840275 147.069226 
L 121.178586 146.515765 
L 121.516897 146.978344 
L 121.855208 146.78948 
L 122.870142 145.445774 
L 123.208453 145.303113 
L 123.546764 145.594595 
L 123.885075 144.404639 
L 124.223386 144.620349 
L 124.561697 144.255461 
L 124.900008 144.729809 
L 125.238319 144.639673 
L 125.57663 144.203552 
L 125.914941 142.849665 
L 126.253252 142.866719 
L 126.591563 141.742517 
L 127.268185 141.523856 
L 127.606496 140.914206 
L 127.944807 141.515296 
L 128.283118 141.877623 
L 128.621429 141.811351 
L 128.95974 140.946694 
L 129.298051 140.835678 
L 129.636362 142.485554 
L 129.974673 141.885534 
L 130.312984 143.144195 
L 131.327917 141.892181 
L 131.666229 141.083876 
L 132.00454 141.226732 
L 132.342851 140.575127 
L 132.681162 139.675842 
L 133.019473 138.168724 
L 133.357784 137.458174 
L 133.696095 135.854371 
L 134.711028 136.163297 
L 135.049339 136.725609 
L 135.38765 135.887118 
L 135.725961 134.190325 
L 136.064272 134.561082 
L 136.402583 135.165642 
L 136.740894 134.493513 
L 137.079205 134.604075 
L 137.417516 133.902247 
L 137.755827 133.701484 
L 138.094138 133.047869 
L 138.432449 132.860691 
L 138.77076 131.609812 
L 139.447382 132.878037 
L 139.785693 134.592987 
L 140.124004 135.43472 
L 141.477249 134.847475 
L 141.81556 134.193503 
L 142.153871 133.085285 
L 142.492182 132.923365 
L 142.830493 133.263579 
L 143.168804 133.377805 
L 143.507115 134.123956 
L 143.845426 133.619097 
L 144.183737 133.93279 
L 144.522048 135.154358 
L 144.860359 134.714151 
L 145.19867 133.163262 
L 145.536981 133.917129 
L 146.213603 132.707849 
L 146.551914 130.97257 
L 146.890225 131.549246 
L 147.228536 129.983831 
L 147.566847 129.959319 
L 147.905158 129.510779 
L 148.243469 129.819252 
L 148.58178 130.432825 
L 148.920091 130.020372 
L 149.258402 129.855403 
L 149.596714 130.15376 
L 149.935025 130.276027 
L 150.273336 129.29387 
L 150.611647 129.252984 
L 150.949958 128.680167 
L 151.288269 128.984911 
L 151.964891 128.416374 
L 152.641513 127.809545 
L 152.979824 128.559359 
L 153.656446 129.036399 
L 153.994757 128.460339 
L 154.333068 128.932386 
L 154.671379 129.020511 
L 155.00969 129.798209 
L 155.348001 129.1812 
L 155.686312 129.718222 
L 156.024623 129.505754 
L 157.039556 125.136042 
L 157.377867 124.878312 
L 157.716178 125.434431 
L 158.054489 125.219823 
L 159.069423 128.529854 
L 159.407734 128.084978 
L 159.746045 127.969909 
L 160.084356 129.450959 
L 160.422667 129.304115 
L 161.099289 130.271455 
L 161.4376 129.523554 
L 161.775911 129.099105 
L 162.114222 129.578057 
L 162.452533 128.243689 
L 162.790844 127.896049 
L 163.129155 127.378643 
L 163.805777 125.432939 
L 164.144088 125.011213 
L 164.82071 124.688215 
L 165.497332 123.315393 
L 165.835643 123.237611 
L 166.173954 123.99151 
L 166.512265 123.460843 
L 166.850576 123.627789 
L 167.188888 124.34223 
L 167.527199 124.610206 
L 167.86551 123.697304 
L 168.203821 123.246657 
L 168.880443 120.864734 
L 169.218754 120.547604 
L 169.557065 120.674994 
L 169.895376 119.498299 
L 170.233687 119.164115 
L 170.571998 119.655194 
L 171.24862 118.963417 
L 171.586931 119.616578 
L 171.925242 119.445741 
L 172.263553 119.856216 
L 172.940175 118.469063 
L 173.278486 118.2885 
L 173.616797 117.918521 
L 173.955108 119.131109 
L 174.293419 118.54516 
L 174.970041 118.336551 
L 175.984975 113.257651 
L 176.661597 113.83692 
L 176.999908 112.008944 
L 177.338219 113.069208 
L 179.029774 110.854361 
L 179.368085 110.778686 
L 179.706396 112.158608 
L 180.044707 111.687891 
L 180.383018 112.05265 
L 180.721329 112.973139 
L 181.05964 113.284951 
L 181.397951 112.705779 
L 181.736262 112.517758 
L 182.074573 113.853585 
L 182.412884 114.21066 
L 182.751195 113.705866 
L 183.427817 112.46841 
L 183.766128 112.954009 
L 184.44275 113.323631 
L 184.781062 113.746038 
L 185.119373 113.359686 
L 185.457684 113.869473 
L 185.795995 115.159292 
L 186.134306 115.864492 
L 186.472617 115.836284 
L 186.810928 116.492266 
L 187.149239 116.546834 
L 187.825861 117.259297 
L 188.164172 116.437503 
L 188.502483 114.790253 
L 188.840794 114.512615 
L 189.179105 113.934643 
L 189.517416 113.704115 
L 189.855727 113.004719 
L 190.194038 112.772311 
L 190.532349 113.689201 
L 191.885593 111.496336 
L 192.562215 112.121614 
L 192.900526 112.41368 
L 193.238837 111.367941 
L 193.577149 110.877446 
L 193.91546 110.940963 
L 194.253771 108.808178 
L 194.592082 108.250567 
L 195.268704 106.53176 
L 195.607015 107.147699 
L 195.945326 106.98192 
L 196.621948 105.801043 
L 196.960259 106.224714 
L 197.29857 105.872341 
L 197.975192 103.78738 
L 198.313503 103.665664 
L 198.651814 103.862147 
L 199.328436 101.79048 
L 199.666747 102.04967 
L 200.005058 101.359805 
L 200.68168 100.572186 
L 201.019991 101.092218 
L 201.358302 101.342394 
L 202.034924 102.667036 
L 202.373236 102.716416 
L 202.711547 101.170163 
L 203.049858 100.145175 
L 203.388169 99.568727 
L 203.72648 98.531742 
L 204.064791 98.050715 
L 204.403102 96.532702 
L 204.741413 96.544926 
L 205.079724 97.235827 
L 205.418035 97.324439 
L 205.756346 96.4841 
L 206.094657 96.155169 
L 206.432968 96.612917 
L 206.771279 97.718995 
L 207.10959 98.212538 
L 207.447901 99.419062 
L 207.786212 99.178516 
L 208.124523 99.704255 
L 208.462834 99.118469 
L 208.801145 99.065522 
L 209.139456 99.477456 
L 209.477767 99.261422 
L 209.816078 100.469502 
L 210.154389 100.685764 
L 210.4927 100.461267 
L 210.831011 99.73282 
L 211.169323 99.299032 
L 211.507634 99.534164 
L 212.184256 102.237042 
L 212.522567 101.573181 
L 213.199189 101.11365 
L 213.5375 99.812742 
L 213.875811 99.894545 
L 214.214122 100.536488 
L 214.552433 100.756284 
L 214.890744 102.101546 
L 215.567366 103.782322 
L 215.905677 103.673835 
L 216.582299 103.157012 
L 216.92061 103.383908 
L 217.258921 104.056815 
L 217.597232 104.009575 
L 217.935543 102.429408 
L 218.273854 101.994388 
L 218.612165 103.073361 
L 219.288787 101.303552 
L 219.627098 101.931099 
L 219.96541 101.740905 
L 220.303721 102.120838 
L 220.642032 101.995393 
L 220.980343 101.113002 
L 221.318654 101.524417 
L 221.656965 101.064756 
L 222.671898 101.352705 
L 223.34852 103.287288 
L 223.686831 102.541364 
L 224.025142 102.380968 
L 224.363453 100.918237 
L 224.701764 100.073909 
L 225.040075 100.507016 
L 225.716697 101.875137 
L 226.393319 101.180085 
L 226.73163 100.34623 
L 227.069941 100.162619 
L 227.408252 99.379247 
L 228.084874 99.51283 
L 229.099808 98.604694 
L 229.438119 99.295952 
L 229.77643 99.497461 
L 230.114741 99.300556 
L 230.453052 100.141025 
L 230.791363 100.001703 
L 231.129674 99.01478 
L 231.467985 99.277601 
L 231.806296 98.273136 
L 232.144607 98.635788 
L 232.482918 97.606779 
L 232.821229 97.736082 
L 233.497851 99.482903 
L 233.836162 99.272705 
L 234.174473 98.746642 
L 234.512784 97.853194 
L 234.851095 98.348779 
L 235.189406 98.098538 
L 235.527717 95.955638 
L 235.866028 95.601125 
L 236.204339 95.811031 
L 236.54265 95.653034 
L 236.880961 96.01669 
L 238.572517 95.209001 
L 238.910828 95.484532 
L 239.249139 95.995388 
L 239.58745 96.783267 
L 239.925761 95.378995 
L 240.264072 95.264898 
L 240.602383 96.578289 
L 240.940694 96.406934 
L 241.279005 95.430937 
L 241.617316 96.118142 
L 242.632249 93.281454 
L 242.97056 92.726145 
L 243.308871 92.827435 
L 243.647182 92.764502 
L 243.985493 92.866667 
L 244.323804 94.557785 
L 244.662115 94.897643 
L 245.338737 94.761272 
L 246.015359 92.53806 
L 246.691982 92.216521 
L 247.030293 93.759401 
L 247.368604 92.834373 
L 248.045226 93.788971 
L 248.721848 92.987767 
L 249.060159 91.857371 
L 249.39847 91.686437 
L 249.736781 91.335426 
L 250.075092 91.329363 
L 250.413403 91.101948 
L 250.751714 91.413468 
L 251.090025 91.23994 
L 251.428336 92.111762 
L 252.104958 90.9778 
L 252.443269 91.162741 
L 252.78158 91.122439 
L 253.119891 91.469333 
L 253.458202 91.114982 
L 253.796513 91.354231 
L 254.134824 90.768413 
L 254.811446 92.262788 
L 255.149757 92.25773 
L 255.488069 93.304247 
L 255.82638 92.868385 
L 256.164691 93.344387 
L 256.841313 93.54729 
L 257.179624 93.262422 
L 257.517935 92.659808 
L 257.856246 92.330163 
L 258.194557 92.936603 
L 258.532868 92.021237 
L 258.871179 92.332692 
L 259.547801 94.06729 
L 259.886112 93.780314 
L 260.224423 93.862539 
L 260.562734 93.724936 
L 260.901045 93.945639 
L 261.239356 92.787101 
L 261.577667 92.554757 
L 261.915978 92.721347 
L 262.254289 92.384537 
L 262.5926 92.995289 
L 262.930911 94.051922 
L 263.607533 93.129358 
L 263.945844 92.085208 
L 264.284156 91.994942 
L 264.960778 90.214141 
L 265.299089 89.767677 
L 265.975711 89.779771 
L 266.314022 90.10841 
L 266.652333 89.769655 
L 266.990644 88.462068 
L 267.328955 88.009313 
L 268.005577 87.665272 
L 268.682199 87.971864 
L 269.02051 88.390089 
L 269.358821 88.017127 
L 270.035443 88.392909 
L 270.373754 88.811782 
L 270.712065 88.535019 
L 271.050376 89.030799 
L 272.40362 85.284063 
L 272.741931 85.063262 
L 273.080243 84.369443 
L 273.418554 83.290308 
L 273.756865 83.343644 
L 274.433487 80.838351 
L 274.771798 81.228206 
L 275.110109 80.428103 
L 275.44842 80.464709 
L 275.786731 80.372401 
L 276.125042 79.536957 
L 276.463353 79.049251 
L 276.801664 79.365537 
L 277.139975 79.218174 
L 277.478286 79.427659 
L 277.816597 80.197803 
L 278.83153 79.465983 
L 279.169841 79.59172 
L 279.508152 78.580738 
L 279.846463 78.596788 
L 280.184774 78.994423 
L 280.523085 79.074735 
L 280.861396 78.598344 
L 281.199707 78.562743 
L 281.538018 78.787824 
L 281.87633 78.65489 
L 282.552952 78.245938 
L 282.891263 78.350503 
L 283.229574 77.906081 
L 283.567885 78.285948 
L 283.906196 79.274396 
L 284.582818 78.152593 
L 284.921129 78.801571 
L 285.25944 77.549817 
L 285.597751 77.244424 
L 285.936062 76.526709 
L 286.274373 76.570026 
L 287.289306 75.082038 
L 287.627617 74.84629 
L 287.965928 74.377064 
L 288.304239 75.064594 
L 288.64255 75.08635 
L 288.980861 75.391904 
L 289.319172 75.318109 
L 289.657483 75.5191 
L 289.995794 75.255922 
L 290.672417 77.772044 
L 291.010728 78.114463 
L 291.349039 78.812076 
L 291.68735 78.819728 
L 292.025661 78.578696 
L 292.363972 79.147492 
L 292.702283 79.398057 
L 293.040594 79.804804 
L 293.717216 80.959159 
L 294.055527 80.507475 
L 294.732149 78.967123 
L 295.07046 79.139224 
L 295.747082 80.399506 
L 296.085393 81.723207 
L 296.423704 82.1473 
L 296.762015 81.802644 
L 297.100326 81.149807 
L 297.438637 81.578568 
L 297.776948 83.109582 
L 298.115259 83.612755 
L 298.45357 84.539566 
L 299.130192 85.290807 
L 299.806815 86.287555 
L 300.483437 86.043766 
L 300.821748 86.343808 
L 301.49837 88.300504 
L 301.836681 88.424295 
L 302.851614 89.264148 
L 303.528236 90.024921 
L 303.866547 89.880055 
L 304.204858 90.71673 
L 304.543169 90.643779 
L 304.88148 91.006592 
L 305.219791 90.823337 
L 305.558102 90.936396 
L 305.896413 91.332735 
L 306.234724 91.516281 
L 306.573035 90.844736 
L 306.911346 90.750677 
L 307.587968 88.241429 
L 308.602902 87.614304 
L 308.941213 87.991448 
L 309.279524 87.15675 
L 309.617835 86.956084 
L 309.956146 86.191712 
L 310.294457 84.989792 
L 310.632768 84.361499 
L 311.30939 84.610767 
L 311.647701 83.793513 
L 311.986012 85.141791 
L 312.662634 84.422843 
L 313.000945 83.044055 
L 314.354189 81.447677 
L 314.6925 79.888844 
L 315.030811 79.410281 
L 315.369122 78.703784 
L 315.707433 80.460105 
L 316.045744 81.157069 
L 316.384055 80.69475 
L 316.722366 79.527425 
L 317.060677 79.270051 
L 317.398989 79.548078 
L 317.7373 79.088385 
L 318.075611 78.059312 
L 318.413922 77.925372 
L 318.752233 76.943345 
L 319.428855 76.881611 
L 320.105477 77.756773 
L 320.782099 76.935368 
L 321.12041 76.300688 
L 321.458721 75.925846 
L 321.797032 75.882529 
L 322.473654 75.133947 
L 322.811965 74.470864 
L 323.150276 75.223888 
L 323.488587 76.289697 
L 324.165209 79.64538 
L 324.50352 80.38939 
L 324.841831 80.382095 
L 325.180142 80.591061 
L 325.518453 79.962412 
L 325.856764 79.746669 
L 326.195076 80.106791 
L 326.533387 80.09674 
L 326.871698 80.901025 
L 327.210009 80.956306 
L 327.54832 80.780574 
L 328.224942 80.20967 
L 328.563253 80.529101 
L 328.901564 78.857242 
L 329.239875 79.169313 
L 329.916497 78.9549 
L 330.593119 80.642873 
L 330.93143 81.643836 
L 331.608052 81.886036 
L 331.946363 82.521137 
L 332.284674 82.161307 
L 332.961296 80.232852 
L 333.637918 80.740726 
L 333.976229 80.708724 
L 334.652851 79.161596 
L 334.991163 79.274234 
L 335.329474 78.21773 
L 335.667785 78.376765 
L 336.006096 78.680342 
L 336.344407 79.271316 
L 337.021029 78.212802 
L 337.697651 78.597015 
L 338.374273 79.347607 
L 338.712584 79.354935 
L 339.050895 79.041372 
L 339.389206 79.104013 
L 339.727517 79.045619 
L 340.065828 78.353356 
L 340.404139 78.201876 
L 340.74245 76.9402 
L 341.419072 75.560633 
L 341.757383 75.863951 
L 342.095694 75.423581 
L 342.772316 75.929445 
L 343.110627 75.570004 
L 343.78725 74.289068 
L 344.125561 74.394151 
L 344.463872 74.103966 
L 345.140494 74.903744 
L 345.478805 74.839741 
L 345.817116 76.352889 
L 346.155427 76.838132 
L 346.493738 76.593273 
L 347.17036 78.541053 
L 347.508671 77.199 
L 347.846982 77.390782 
L 348.185293 77.329827 
L 348.523604 76.961728 
L 349.200226 76.736389 
L 349.538537 77.968333 
L 349.876848 78.726058 
L 350.215159 78.751478 
L 350.55347 78.498805 
L 351.230092 78.750829 
L 351.568403 79.772186 
L 351.906714 79.610071 
L 352.245025 81.522931 
L 352.583337 81.970141 
L 352.921648 81.273695 
L 353.59827 81.205834 
L 353.936581 80.665504 
L 354.274892 81.064794 
L 354.613203 81.835553 
L 354.951514 81.359097 
L 355.289825 81.118421 
L 355.628136 81.277683 
L 356.643069 83.030956 
L 356.98138 82.737788 
L 357.319691 82.166235 
L 357.658002 83.106924 
L 357.996313 82.526293 
L 358.334624 83.160778 
L 358.672935 82.486801 
L 359.011246 82.81771 
L 359.349557 82.352927 
L 359.687868 83.002327 
L 360.026179 82.775982 
L 360.36449 82.810675 
L 360.702801 83.608507 
L 361.041112 84.066547 
L 361.379424 85.481097 
L 361.717735 85.608001 
L 362.056046 86.019935 
L 362.394357 86.028722 
L 362.732668 84.454326 
L 363.070979 83.612982 
L 363.40929 83.36929 
L 363.747601 83.964933 
L 364.085912 81.736306 
L 364.424223 82.148792 
L 364.762534 81.30521 
L 365.100845 81.629829 
L 365.439156 82.653909 
L 365.777467 84.828552 
L 366.115778 85.298459 
L 366.454089 83.620017 
L 366.7924 82.937286 
L 367.130711 83.215378 
L 367.807333 87.775835 
L 368.145644 88.531809 
L 368.483955 87.391168 
L 368.822266 87.186806 
L 369.160577 86.423796 
L 369.498888 86.333271 
L 369.837199 87.070537 
L 370.175511 86.380187 
L 370.513822 86.742514 
L 371.190444 88.590917 
L 371.528755 87.633595 
L 371.867066 87.32415 
L 372.205377 87.354563 
L 372.543688 86.717483 
L 373.22031 86.561399 
L 373.896932 87.089732 
L 374.235243 86.4474 
L 374.573554 85.294665 
L 374.911865 84.872777 
L 375.250176 84.186674 
L 375.588487 85.448707 
L 375.926798 85.586958 
L 376.265109 85.562706 
L 376.60342 84.963043 
L 376.941731 84.900499 
L 377.280042 85.823873 
L 377.956664 84.382315 
L 378.294975 82.971914 
L 378.633286 82.603362 
L 378.971598 83.822337 
L 379.309909 83.688657 
L 379.64822 84.326093 
L 379.986531 86.420132 
L 380.324842 87.636773 
L 380.663153 86.641808 
L 381.001464 87.222666 
L 381.339775 86.713722 
L 381.678086 86.591293 
L 382.016397 86.633508 
L 382.354708 85.747485 
L 382.693019 82.876428 
L 383.03133 82.421891 
L 383.369641 82.174082 
L 383.707952 82.373548 
L 384.046263 81.744282 
L 384.722885 77.973066 
L 385.061196 76.760738 
L 385.399507 76.92201 
L 385.737818 77.285407 
L 386.076129 76.359374 
L 386.41444 76.465332 
L 386.752751 76.847405 
L 387.429373 76.339661 
L 387.767685 75.528729 
L 388.105996 73.92752 
L 388.444307 73.698678 
L 388.782618 73.767804 
L 389.120929 73.562048 
L 389.45924 73.593498 
L 389.797551 73.21992 
L 390.135862 73.492144 
L 390.474173 72.901494 
L 390.812484 73.43469 
L 391.150795 75.310069 
L 391.489106 74.626754 
L 392.165728 74.31705 
L 392.84235 73.365272 
L 393.180661 73.580334 
L 393.518972 73.249587 
L 393.857283 73.459461 
L 394.195594 72.757471 
L 394.533905 72.418326 
L 394.872216 72.56209 
L 395.548838 74.342955 
L 395.887149 72.337982 
L 396.22546 72.43564 
L 396.563771 71.297139 
L 396.902083 68.802903 
L 397.240394 67.993982 
L 397.578705 67.626856 
L 397.917016 66.938451 
L 398.255327 68.242407 
L 398.593638 67.846814 
L 398.931949 68.510383 
L 399.946882 69.188575 
L 400.285193 69.061476 
L 400.623504 69.123307 
L 400.961815 70.552513 
L 401.638437 69.587604 
L 402.315059 70.184577 
L 402.65337 70.45907 
L 402.991681 70.205846 
L 403.668303 68.032435 
L 404.006614 67.797466 
L 404.344925 68.87365 
L 404.683236 69.456259 
L 405.021547 69.517895 
L 405.359858 70.472233 
L 406.374792 70.385275 
L 406.713103 70.046876 
L 407.051414 69.115072 
L 407.389725 70.046746 
L 407.728036 69.004931 
L 408.066347 67.545118 
L 408.404658 67.767215 
L 408.742969 68.172503 
L 409.08128 68.01564 
L 409.419591 67.289916 
L 409.757902 67.641576 
L 410.096213 67.623841 
L 410.434524 68.247757 
L 410.772835 68.199025 
L 411.111146 67.941554 
L 411.449457 67.860334 
L 411.787768 68.168871 
L 412.126079 67.454009 
L 412.802701 67.173291 
L 413.141012 67.21596 
L 413.479323 67.37493 
L 414.155945 66.584976 
L 414.494257 67.422591 
L 414.832568 69.448931 
L 415.170879 68.583043 
L 415.50919 68.597666 
L 415.847501 67.258272 
L 416.185812 67.483676 
L 416.524123 67.885981 
L 416.862434 67.480402 
L 417.200745 67.315531 
L 417.539056 66.993635 
L 417.877367 65.203043 
L 418.215678 65.665362 
L 418.553989 65.635403 
L 419.568922 64.566677 
L 419.907233 64.889253 
L 420.245544 67.040681 
L 420.583855 67.101215 
L 420.922166 67.695236 
L 421.260477 66.840858 
L 421.598788 67.067106 
L 421.937099 67.661322 
L 422.27541 68.654989 
L 422.613721 68.630867 
L 422.952032 69.369073 
L 423.290344 69.49494 
L 423.966966 71.094755 
L 424.305277 70.687133 
L 424.981899 73.582669 
L 425.32021 73.973171 
L 425.658521 73.980888 
L 425.996832 74.611029 
L 426.335143 75.735393 
L 426.673454 79.837875 
L 427.011765 79.991722 
L 427.350076 79.601479 
L 427.688387 79.692004 
L 428.026698 79.521491 
L 428.365009 79.987864 
L 428.70332 80.71456 
L 429.041631 80.366208 
L 429.379942 79.658252 
L 429.718253 79.943347 
L 430.056564 81.41561 
L 430.394875 81.751545 
L 430.733186 82.865275 
L 431.071497 83.518825 
L 431.409808 83.65283 
L 431.748119 81.978603 
L 432.086431 81.741915 
L 432.763053 83.555074 
L 433.101364 83.733692 
L 433.101364 83.733692 
" style="fill:none;stroke:#ff7f0e;stroke-linecap:square;stroke-width:0.8;"/>
   </g>
   <g id="patch_3">
    <path d="M 78.23 303.64 
L 78.23 25.44 
" style="fill:none;stroke:#000000;stroke-linecap:square;stroke-linejoin:miter;stroke-width:0.8;"/>
   </g>
   <g id="patch_4">
    <path d="M 450 303.64 
L 450 25.44 
" style="fill:none;stroke:#000000;stroke-linecap:square;stroke-linejoin:miter;stroke-width:0.8;"/>
   </g>
   <g id="patch_5">
    <path d="M 78.23 303.64 
L 450 303.64 
" style="fill:none;stroke:#000000;stroke-linecap:square;stroke-linejoin:miter;stroke-width:0.8;"/>
   </g>
   <g id="patch_6">
    <path d="M 78.23 25.44 
L 450 25.44 
" style="fill:none;stroke:#000000;stroke-linecap:square;stroke-linejoin:miter;stroke-width:0.8;"/>
   </g>
   <g id="patch_7">
    <path d="M 428.664661 77.142964 
Q 430.435659 80.68496 431.706658 83.226956 
" style="fill:none;stroke:#000000;stroke-linecap:round;"/>
    <path d="M 431.706658 78.75482 
L 431.706658 83.226956 
L 428.128949 80.543675 
" style="fill:none;stroke:#000000;stroke-linecap:round;"/>
   </g>
   <g id="patch_8">
    <path d="M 393.439645 74.855431 
L 452.763082 74.855431 
L 452.763082 57.177306 
L 393.439645 57.177306 
z
" style="fill:#ffffff;stroke:#000000;stroke-linejoin:miter;"/>
   </g>
   <g id="text_17">
    <!-- -102425.0 -->
    <defs>
     <path d="M 4.890625 31.390625 
L 31.203125 31.390625 
L 31.203125 23.390625 
L 4.890625 23.390625 
z
" id="DejaVuSans-45"/>
     <path d="M 10.6875 12.40625 
L 21 12.40625 
L 21 0 
L 10.6875 0 
z
" id="DejaVuSans-46"/>
    </defs>
    <g transform="translate(397.439645 68.775744)scale(0.1 -0.1)">
     <use xlink:href="#DejaVuSans-45"/>
     <use x="36.083984" xlink:href="#DejaVuSans-49"/>
     <use x="99.707031" xlink:href="#DejaVuSans-48"/>
     <use x="163.330078" xlink:href="#DejaVuSans-50"/>
     <use x="226.953125" xlink:href="#DejaVuSans-52"/>
     <use x="290.576172" xlink:href="#DejaVuSans-50"/>
     <use x="354.199219" xlink:href="#DejaVuSans-53"/>
     <use x="417.822266" xlink:href="#DejaVuSans-46"/>
     <use x="449.609375" xlink:href="#DejaVuSans-48"/>
    </g>
   </g>
   <g id="text_18">
    <!-- Reward over episodes (Training) -->
    <defs>
     <path d="M 2.984375 54.6875 
L 12.5 54.6875 
L 29.59375 8.796875 
L 46.6875 54.6875 
L 56.203125 54.6875 
L 35.6875 0 
L 23.484375 0 
z
" id="DejaVuSans-118"/>
     <path d="M -0.296875 72.90625 
L 61.375 72.90625 
L 61.375 64.59375 
L 35.5 64.59375 
L 35.5 0 
L 25.59375 0 
L 25.59375 64.59375 
L -0.296875 64.59375 
z
" id="DejaVuSans-84"/>
     <path d="M 54.890625 33.015625 
L 54.890625 0 
L 45.90625 0 
L 45.90625 32.71875 
Q 45.90625 40.484375 42.875 44.328125 
Q 39.84375 48.1875 33.796875 48.1875 
Q 26.515625 48.1875 22.3125 43.546875 
Q 18.109375 38.921875 18.109375 30.90625 
L 18.109375 0 
L 9.078125 0 
L 9.078125 54.6875 
L 18.109375 54.6875 
L 18.109375 46.1875 
Q 21.34375 51.125 25.703125 53.5625 
Q 30.078125 56 35.796875 56 
Q 45.21875 56 50.046875 50.171875 
Q 54.890625 44.34375 54.890625 33.015625 
z
" id="DejaVuSans-110"/>
     <path d="M 45.40625 27.984375 
Q 45.40625 37.75 41.375 43.109375 
Q 37.359375 48.484375 30.078125 48.484375 
Q 22.859375 48.484375 18.828125 43.109375 
Q 14.796875 37.75 14.796875 27.984375 
Q 14.796875 18.265625 18.828125 12.890625 
Q 22.859375 7.515625 30.078125 7.515625 
Q 37.359375 7.515625 41.375 12.890625 
Q 45.40625 18.265625 45.40625 27.984375 
z
M 54.390625 6.78125 
Q 54.390625 -7.171875 48.1875 -13.984375 
Q 42 -20.796875 29.203125 -20.796875 
Q 24.46875 -20.796875 20.265625 -20.09375 
Q 16.0625 -19.390625 12.109375 -17.921875 
L 12.109375 -9.1875 
Q 16.0625 -11.328125 19.921875 -12.34375 
Q 23.78125 -13.375 27.78125 -13.375 
Q 36.625 -13.375 41.015625 -8.765625 
Q 45.40625 -4.15625 45.40625 5.171875 
L 45.40625 9.625 
Q 42.625 4.78125 38.28125 2.390625 
Q 33.9375 0 27.875 0 
Q 17.828125 0 11.671875 7.65625 
Q 5.515625 15.328125 5.515625 27.984375 
Q 5.515625 40.671875 11.671875 48.328125 
Q 17.828125 56 27.875 56 
Q 33.9375 56 38.28125 53.609375 
Q 42.625 51.21875 45.40625 46.390625 
L 45.40625 54.6875 
L 54.390625 54.6875 
z
" id="DejaVuSans-103"/>
    </defs>
    <g transform="translate(166.481875 19.44)scale(0.12 -0.12)">
     <use xlink:href="#DejaVuSans-82"/>
     <use x="69.419922" xlink:href="#DejaVuSans-101"/>
     <use x="130.943359" xlink:href="#DejaVuSans-119"/>
     <use x="212.730469" xlink:href="#DejaVuSans-97"/>
     <use x="274.009766" xlink:href="#DejaVuSans-114"/>
     <use x="315.107422" xlink:href="#DejaVuSans-100"/>
     <use x="378.583984" xlink:href="#DejaVuSans-32"/>
     <use x="410.371094" xlink:href="#DejaVuSans-111"/>
     <use x="471.552734" xlink:href="#DejaVuSans-118"/>
     <use x="530.732422" xlink:href="#DejaVuSans-101"/>
     <use x="592.255859" xlink:href="#DejaVuSans-114"/>
     <use x="633.369141" xlink:href="#DejaVuSans-32"/>
     <use x="665.15625" xlink:href="#DejaVuSans-101"/>
     <use x="726.679688" xlink:href="#DejaVuSans-112"/>
     <use x="790.15625" xlink:href="#DejaVuSans-105"/>
     <use x="817.939453" xlink:href="#DejaVuSans-115"/>
     <use x="870.039062" xlink:href="#DejaVuSans-111"/>
     <use x="931.220703" xlink:href="#DejaVuSans-100"/>
     <use x="994.697266" xlink:href="#DejaVuSans-101"/>
     <use x="1056.220703" xlink:href="#DejaVuSans-115"/>
     <use x="1108.320312" xlink:href="#DejaVuSans-32"/>
     <use x="1140.107422" xlink:href="#DejaVuSans-40"/>
     <use x="1179.121094" xlink:href="#DejaVuSans-84"/>
     <use x="1239.986328" xlink:href="#DejaVuSans-114"/>
     <use x="1281.099609" xlink:href="#DejaVuSans-97"/>
     <use x="1342.378906" xlink:href="#DejaVuSans-105"/>
     <use x="1370.162109" xlink:href="#DejaVuSans-110"/>
     <use x="1433.541016" xlink:href="#DejaVuSans-105"/>
     <use x="1461.324219" xlink:href="#DejaVuSans-110"/>
     <use x="1524.703125" xlink:href="#DejaVuSans-103"/>
     <use x="1588.179688" xlink:href="#DejaVuSans-41"/>
    </g>
   </g>
   <g id="legend_1">
    <g id="patch_9">
     <path d="M 85.23 62.79625 
L 174.2925 62.79625 
Q 176.2925 62.79625 176.2925 60.79625 
L 176.2925 32.44 
Q 176.2925 30.44 174.2925 30.44 
L 85.23 30.44 
Q 83.23 30.44 83.23 32.44 
L 83.23 60.79625 
Q 83.23 62.79625 85.23 62.79625 
z
" style="fill:#ffffff;opacity:0.8;stroke:#cccccc;stroke-linejoin:miter;"/>
    </g>
    <g id="line2d_31">
     <path d="M 87.23 38.538437 
L 107.23 38.538437 
" style="fill:none;stroke:#1f77b4;stroke-linecap:square;stroke-width:0.8;"/>
    </g>
    <g id="line2d_32"/>
    <g id="text_19">
     <!-- Rewards -->
     <g transform="translate(115.23 42.038437)scale(0.1 -0.1)">
      <use xlink:href="#DejaVuSans-82"/>
      <use x="69.419922" xlink:href="#DejaVuSans-101"/>
      <use x="130.943359" xlink:href="#DejaVuSans-119"/>
      <use x="212.730469" xlink:href="#DejaVuSans-97"/>
      <use x="274.009766" xlink:href="#DejaVuSans-114"/>
      <use x="315.107422" xlink:href="#DejaVuSans-100"/>
      <use x="378.583984" xlink:href="#DejaVuSans-115"/>
     </g>
    </g>
    <g id="line2d_33">
     <path d="M 87.23 53.216562 
L 107.23 53.216562 
" style="fill:none;stroke:#ff7f0e;stroke-linecap:square;stroke-width:0.8;"/>
    </g>
    <g id="line2d_34"/>
    <g id="text_20">
     <!-- SMA(n=50) -->
     <defs>
      <path d="M 53.515625 70.515625 
L 53.515625 60.890625 
Q 47.90625 63.578125 42.921875 64.890625 
Q 37.9375 66.21875 33.296875 66.21875 
Q 25.25 66.21875 20.875 63.09375 
Q 16.5 59.96875 16.5 54.203125 
Q 16.5 49.359375 19.40625 46.890625 
Q 22.3125 44.4375 30.421875 42.921875 
L 36.375 41.703125 
Q 47.40625 39.59375 52.65625 34.296875 
Q 57.90625 29 57.90625 20.125 
Q 57.90625 9.515625 50.796875 4.046875 
Q 43.703125 -1.421875 29.984375 -1.421875 
Q 24.8125 -1.421875 18.96875 -0.25 
Q 13.140625 0.921875 6.890625 3.21875 
L 6.890625 13.375 
Q 12.890625 10.015625 18.65625 8.296875 
Q 24.421875 6.59375 29.984375 6.59375 
Q 38.421875 6.59375 43.015625 9.90625 
Q 47.609375 13.234375 47.609375 19.390625 
Q 47.609375 24.75 44.3125 27.78125 
Q 41.015625 30.8125 33.5 32.328125 
L 27.484375 33.5 
Q 16.453125 35.6875 11.515625 40.375 
Q 6.59375 45.0625 6.59375 53.421875 
Q 6.59375 63.09375 13.40625 68.65625 
Q 20.21875 74.21875 32.171875 74.21875 
Q 37.3125 74.21875 42.625 73.28125 
Q 47.953125 72.359375 53.515625 70.515625 
z
" id="DejaVuSans-83"/>
      <path d="M 9.8125 72.90625 
L 24.515625 72.90625 
L 43.109375 23.296875 
L 61.8125 72.90625 
L 76.515625 72.90625 
L 76.515625 0 
L 66.890625 0 
L 66.890625 64.015625 
L 48.09375 14.015625 
L 38.1875 14.015625 
L 19.390625 64.015625 
L 19.390625 0 
L 9.8125 0 
z
" id="DejaVuSans-77"/>
      <path d="M 10.59375 45.40625 
L 73.1875 45.40625 
L 73.1875 37.203125 
L 10.59375 37.203125 
z
M 10.59375 25.484375 
L 73.1875 25.484375 
L 73.1875 17.1875 
L 10.59375 17.1875 
z
" id="DejaVuSans-61"/>
     </defs>
     <g transform="translate(115.23 56.716562)scale(0.1 -0.1)">
      <use xlink:href="#DejaVuSans-83"/>
      <use x="63.476562" xlink:href="#DejaVuSans-77"/>
      <use x="149.755859" xlink:href="#DejaVuSans-65"/>
      <use x="218.164062" xlink:href="#DejaVuSans-40"/>
      <use x="257.177734" xlink:href="#DejaVuSans-110"/>
      <use x="320.556641" xlink:href="#DejaVuSans-61"/>
      <use x="404.345703" xlink:href="#DejaVuSans-53"/>
      <use x="467.96875" xlink:href="#DejaVuSans-48"/>
      <use x="531.591797" xlink:href="#DejaVuSans-41"/>
     </g>
    </g>
   </g>
  </g>
 </g>
 <defs>
  <clipPath id="p0fda52ec31">
   <rect height="278.2" width="371.77" x="78.23" y="25.44"/>
  </clipPath>
 </defs>
</svg>
