<?xml version="1.0" encoding="utf-8" standalone="no"?>
<!DOCTYPE svg PUBLIC "-//W3C//DTD SVG 1.1//EN"
  "http://www.w3.org/Graphics/SVG/1.1/DTD/svg11.dtd">
<!-- Created with matplotlib (https://matplotlib.org/) -->
<svg height="345.6pt" version="1.1" viewBox="0 0 460.8 345.6" width="460.8pt" xmlns="http://www.w3.org/2000/svg" xmlns:xlink="http://www.w3.org/1999/xlink">
 <defs>
  <style type="text/css">
*{stroke-linecap:butt;stroke-linejoin:round;}
  </style>
 </defs>
 <g id="figure_1">
  <g id="patch_1">
   <path d="M 0 345.6 
L 460.8 345.6 
L 460.8 0 
L 0 0 
z
" style="fill:#ffffff;"/>
  </g>
  <g id="axes_1">
   <g id="patch_2">
    <path d="M 63.47 303.64 
L 450 303.64 
L 450 25.44 
L 63.47 25.44 
z
" style="fill:#ffffff;"/>
   </g>
   <g id="matplotlib.axis_1">
    <g id="xtick_1">
     <g id="line2d_1">
      <path clip-path="url(#pde67f144df)" d="M 81.039545 303.64 
L 81.039545 25.44 
" style="fill:none;stroke:#b0b0b0;stroke-linecap:square;stroke-width:0.8;"/>
     </g>
     <g id="line2d_2">
      <defs>
       <path d="M 0 0 
L 0 3.5 
" id="m02a535ade5" style="stroke:#000000;stroke-width:0.8;"/>
      </defs>
      <g>
       <use style="stroke:#000000;stroke-width:0.8;" x="81.039545" xlink:href="#m02a535ade5" y="303.64"/>
      </g>
     </g>
     <g id="text_1">
      <!-- 0 -->
      <defs>
       <path d="M 31.78125 66.40625 
Q 24.171875 66.40625 20.328125 58.90625 
Q 16.5 51.421875 16.5 36.375 
Q 16.5 21.390625 20.328125 13.890625 
Q 24.171875 6.390625 31.78125 6.390625 
Q 39.453125 6.390625 43.28125 13.890625 
Q 47.125 21.390625 47.125 36.375 
Q 47.125 51.421875 43.28125 58.90625 
Q 39.453125 66.40625 31.78125 66.40625 
z
M 31.78125 74.21875 
Q 44.046875 74.21875 50.515625 64.515625 
Q 56.984375 54.828125 56.984375 36.375 
Q 56.984375 17.96875 50.515625 8.265625 
Q 44.046875 -1.421875 31.78125 -1.421875 
Q 19.53125 -1.421875 13.0625 8.265625 
Q 6.59375 17.96875 6.59375 36.375 
Q 6.59375 54.828125 13.0625 64.515625 
Q 19.53125 74.21875 31.78125 74.21875 
z
" id="DejaVuSans-48"/>
      </defs>
      <g transform="translate(77.858295 318.238437)scale(0.1 -0.1)">
       <use xlink:href="#DejaVuSans-48"/>
      </g>
     </g>
    </g>
    <g id="xtick_2">
     <g id="line2d_3">
      <path clip-path="url(#pde67f144df)" d="M 128.20611 303.64 
L 128.20611 25.44 
" style="fill:none;stroke:#b0b0b0;stroke-linecap:square;stroke-width:0.8;"/>
     </g>
     <g id="line2d_4">
      <g>
       <use style="stroke:#000000;stroke-width:0.8;" x="128.20611" xlink:href="#m02a535ade5" y="303.64"/>
      </g>
     </g>
     <g id="text_2">
      <!-- 20 -->
      <defs>
       <path d="M 19.1875 8.296875 
L 53.609375 8.296875 
L 53.609375 0 
L 7.328125 0 
L 7.328125 8.296875 
Q 12.9375 14.109375 22.625 23.890625 
Q 32.328125 33.6875 34.8125 36.53125 
Q 39.546875 41.84375 41.421875 45.53125 
Q 43.3125 49.21875 43.3125 52.78125 
Q 43.3125 58.59375 39.234375 62.25 
Q 35.15625 65.921875 28.609375 65.921875 
Q 23.96875 65.921875 18.8125 64.3125 
Q 13.671875 62.703125 7.8125 59.421875 
L 7.8125 69.390625 
Q 13.765625 71.78125 18.9375 73 
Q 24.125 74.21875 28.421875 74.21875 
Q 39.75 74.21875 46.484375 68.546875 
Q 53.21875 62.890625 53.21875 53.421875 
Q 53.21875 48.921875 51.53125 44.890625 
Q 49.859375 40.875 45.40625 35.40625 
Q 44.1875 33.984375 37.640625 27.21875 
Q 31.109375 20.453125 19.1875 8.296875 
z
" id="DejaVuSans-50"/>
      </defs>
      <g transform="translate(121.84361 318.238437)scale(0.1 -0.1)">
       <use xlink:href="#DejaVuSans-50"/>
       <use x="63.623047" xlink:href="#DejaVuSans-48"/>
      </g>
     </g>
    </g>
    <g id="xtick_3">
     <g id="line2d_5">
      <path clip-path="url(#pde67f144df)" d="M 175.372675 303.64 
L 175.372675 25.44 
" style="fill:none;stroke:#b0b0b0;stroke-linecap:square;stroke-width:0.8;"/>
     </g>
     <g id="line2d_6">
      <g>
       <use style="stroke:#000000;stroke-width:0.8;" x="175.372675" xlink:href="#m02a535ade5" y="303.64"/>
      </g>
     </g>
     <g id="text_3">
      <!-- 40 -->
      <defs>
       <path d="M 37.796875 64.3125 
L 12.890625 25.390625 
L 37.796875 25.390625 
z
M 35.203125 72.90625 
L 47.609375 72.90625 
L 47.609375 25.390625 
L 58.015625 25.390625 
L 58.015625 17.1875 
L 47.609375 17.1875 
L 47.609375 0 
L 37.796875 0 
L 37.796875 17.1875 
L 4.890625 17.1875 
L 4.890625 26.703125 
z
" id="DejaVuSans-52"/>
      </defs>
      <g transform="translate(169.010175 318.238437)scale(0.1 -0.1)">
       <use xlink:href="#DejaVuSans-52"/>
       <use x="63.623047" xlink:href="#DejaVuSans-48"/>
      </g>
     </g>
    </g>
    <g id="xtick_4">
     <g id="line2d_7">
      <path clip-path="url(#pde67f144df)" d="M 222.53924 303.64 
L 222.53924 25.44 
" style="fill:none;stroke:#b0b0b0;stroke-linecap:square;stroke-width:0.8;"/>
     </g>
     <g id="line2d_8">
      <g>
       <use style="stroke:#000000;stroke-width:0.8;" x="222.53924" xlink:href="#m02a535ade5" y="303.64"/>
      </g>
     </g>
     <g id="text_4">
      <!-- 60 -->
      <defs>
       <path d="M 33.015625 40.375 
Q 26.375 40.375 22.484375 35.828125 
Q 18.609375 31.296875 18.609375 23.390625 
Q 18.609375 15.53125 22.484375 10.953125 
Q 26.375 6.390625 33.015625 6.390625 
Q 39.65625 6.390625 43.53125 10.953125 
Q 47.40625 15.53125 47.40625 23.390625 
Q 47.40625 31.296875 43.53125 35.828125 
Q 39.65625 40.375 33.015625 40.375 
z
M 52.59375 71.296875 
L 52.59375 62.3125 
Q 48.875 64.0625 45.09375 64.984375 
Q 41.3125 65.921875 37.59375 65.921875 
Q 27.828125 65.921875 22.671875 59.328125 
Q 17.53125 52.734375 16.796875 39.40625 
Q 19.671875 43.65625 24.015625 45.921875 
Q 28.375 48.1875 33.59375 48.1875 
Q 44.578125 48.1875 50.953125 41.515625 
Q 57.328125 34.859375 57.328125 23.390625 
Q 57.328125 12.15625 50.6875 5.359375 
Q 44.046875 -1.421875 33.015625 -1.421875 
Q 20.359375 -1.421875 13.671875 8.265625 
Q 6.984375 17.96875 6.984375 36.375 
Q 6.984375 53.65625 15.1875 63.9375 
Q 23.390625 74.21875 37.203125 74.21875 
Q 40.921875 74.21875 44.703125 73.484375 
Q 48.484375 72.75 52.59375 71.296875 
z
" id="DejaVuSans-54"/>
      </defs>
      <g transform="translate(216.17674 318.238437)scale(0.1 -0.1)">
       <use xlink:href="#DejaVuSans-54"/>
       <use x="63.623047" xlink:href="#DejaVuSans-48"/>
      </g>
     </g>
    </g>
    <g id="xtick_5">
     <g id="line2d_9">
      <path clip-path="url(#pde67f144df)" d="M 269.705805 303.64 
L 269.705805 25.44 
" style="fill:none;stroke:#b0b0b0;stroke-linecap:square;stroke-width:0.8;"/>
     </g>
     <g id="line2d_10">
      <g>
       <use style="stroke:#000000;stroke-width:0.8;" x="269.705805" xlink:href="#m02a535ade5" y="303.64"/>
      </g>
     </g>
     <g id="text_5">
      <!-- 80 -->
      <defs>
       <path d="M 31.78125 34.625 
Q 24.75 34.625 20.71875 30.859375 
Q 16.703125 27.09375 16.703125 20.515625 
Q 16.703125 13.921875 20.71875 10.15625 
Q 24.75 6.390625 31.78125 6.390625 
Q 38.8125 6.390625 42.859375 10.171875 
Q 46.921875 13.96875 46.921875 20.515625 
Q 46.921875 27.09375 42.890625 30.859375 
Q 38.875 34.625 31.78125 34.625 
z
M 21.921875 38.8125 
Q 15.578125 40.375 12.03125 44.71875 
Q 8.5 49.078125 8.5 55.328125 
Q 8.5 64.0625 14.71875 69.140625 
Q 20.953125 74.21875 31.78125 74.21875 
Q 42.671875 74.21875 48.875 69.140625 
Q 55.078125 64.0625 55.078125 55.328125 
Q 55.078125 49.078125 51.53125 44.71875 
Q 48 40.375 41.703125 38.8125 
Q 48.828125 37.15625 52.796875 32.3125 
Q 56.78125 27.484375 56.78125 20.515625 
Q 56.78125 9.90625 50.3125 4.234375 
Q 43.84375 -1.421875 31.78125 -1.421875 
Q 19.734375 -1.421875 13.25 4.234375 
Q 6.78125 9.90625 6.78125 20.515625 
Q 6.78125 27.484375 10.78125 32.3125 
Q 14.796875 37.15625 21.921875 38.8125 
z
M 18.3125 54.390625 
Q 18.3125 48.734375 21.84375 45.5625 
Q 25.390625 42.390625 31.78125 42.390625 
Q 38.140625 42.390625 41.71875 45.5625 
Q 45.3125 48.734375 45.3125 54.390625 
Q 45.3125 60.0625 41.71875 63.234375 
Q 38.140625 66.40625 31.78125 66.40625 
Q 25.390625 66.40625 21.84375 63.234375 
Q 18.3125 60.0625 18.3125 54.390625 
z
" id="DejaVuSans-56"/>
      </defs>
      <g transform="translate(263.343305 318.238437)scale(0.1 -0.1)">
       <use xlink:href="#DejaVuSans-56"/>
       <use x="63.623047" xlink:href="#DejaVuSans-48"/>
      </g>
     </g>
    </g>
    <g id="xtick_6">
     <g id="line2d_11">
      <path clip-path="url(#pde67f144df)" d="M 316.87237 303.64 
L 316.87237 25.44 
" style="fill:none;stroke:#b0b0b0;stroke-linecap:square;stroke-width:0.8;"/>
     </g>
     <g id="line2d_12">
      <g>
       <use style="stroke:#000000;stroke-width:0.8;" x="316.87237" xlink:href="#m02a535ade5" y="303.64"/>
      </g>
     </g>
     <g id="text_6">
      <!-- 100 -->
      <defs>
       <path d="M 12.40625 8.296875 
L 28.515625 8.296875 
L 28.515625 63.921875 
L 10.984375 60.40625 
L 10.984375 69.390625 
L 28.421875 72.90625 
L 38.28125 72.90625 
L 38.28125 8.296875 
L 54.390625 8.296875 
L 54.390625 0 
L 12.40625 0 
z
" id="DejaVuSans-49"/>
      </defs>
      <g transform="translate(307.32862 318.238437)scale(0.1 -0.1)">
       <use xlink:href="#DejaVuSans-49"/>
       <use x="63.623047" xlink:href="#DejaVuSans-48"/>
       <use x="127.246094" xlink:href="#DejaVuSans-48"/>
      </g>
     </g>
    </g>
    <g id="xtick_7">
     <g id="line2d_13">
      <path clip-path="url(#pde67f144df)" d="M 364.038935 303.64 
L 364.038935 25.44 
" style="fill:none;stroke:#b0b0b0;stroke-linecap:square;stroke-width:0.8;"/>
     </g>
     <g id="line2d_14">
      <g>
       <use style="stroke:#000000;stroke-width:0.8;" x="364.038935" xlink:href="#m02a535ade5" y="303.64"/>
      </g>
     </g>
     <g id="text_7">
      <!-- 120 -->
      <g transform="translate(354.495185 318.238437)scale(0.1 -0.1)">
       <use xlink:href="#DejaVuSans-49"/>
       <use x="63.623047" xlink:href="#DejaVuSans-50"/>
       <use x="127.246094" xlink:href="#DejaVuSans-48"/>
      </g>
     </g>
    </g>
    <g id="xtick_8">
     <g id="line2d_15">
      <path clip-path="url(#pde67f144df)" d="M 411.2055 303.64 
L 411.2055 25.44 
" style="fill:none;stroke:#b0b0b0;stroke-linecap:square;stroke-width:0.8;"/>
     </g>
     <g id="line2d_16">
      <g>
       <use style="stroke:#000000;stroke-width:0.8;" x="411.2055" xlink:href="#m02a535ade5" y="303.64"/>
      </g>
     </g>
     <g id="text_8">
      <!-- 140 -->
      <g transform="translate(401.66175 318.238437)scale(0.1 -0.1)">
       <use xlink:href="#DejaVuSans-49"/>
       <use x="63.623047" xlink:href="#DejaVuSans-52"/>
       <use x="127.246094" xlink:href="#DejaVuSans-48"/>
      </g>
     </g>
    </g>
    <g id="text_9">
     <!-- Episode -->
     <defs>
      <path d="M 9.8125 72.90625 
L 55.90625 72.90625 
L 55.90625 64.59375 
L 19.671875 64.59375 
L 19.671875 43.015625 
L 54.390625 43.015625 
L 54.390625 34.71875 
L 19.671875 34.71875 
L 19.671875 8.296875 
L 56.78125 8.296875 
L 56.78125 0 
L 9.8125 0 
z
" id="DejaVuSans-69"/>
      <path d="M 18.109375 8.203125 
L 18.109375 -20.796875 
L 9.078125 -20.796875 
L 9.078125 54.6875 
L 18.109375 54.6875 
L 18.109375 46.390625 
Q 20.953125 51.265625 25.265625 53.625 
Q 29.59375 56 35.59375 56 
Q 45.5625 56 51.78125 48.09375 
Q 58.015625 40.1875 58.015625 27.296875 
Q 58.015625 14.40625 51.78125 6.484375 
Q 45.5625 -1.421875 35.59375 -1.421875 
Q 29.59375 -1.421875 25.265625 0.953125 
Q 20.953125 3.328125 18.109375 8.203125 
z
M 48.6875 27.296875 
Q 48.6875 37.203125 44.609375 42.84375 
Q 40.53125 48.484375 33.40625 48.484375 
Q 26.265625 48.484375 22.1875 42.84375 
Q 18.109375 37.203125 18.109375 27.296875 
Q 18.109375 17.390625 22.1875 11.75 
Q 26.265625 6.109375 33.40625 6.109375 
Q 40.53125 6.109375 44.609375 11.75 
Q 48.6875 17.390625 48.6875 27.296875 
z
" id="DejaVuSans-112"/>
      <path d="M 9.421875 54.6875 
L 18.40625 54.6875 
L 18.40625 0 
L 9.421875 0 
z
M 9.421875 75.984375 
L 18.40625 75.984375 
L 18.40625 64.59375 
L 9.421875 64.59375 
z
" id="DejaVuSans-105"/>
      <path d="M 44.28125 53.078125 
L 44.28125 44.578125 
Q 40.484375 46.53125 36.375 47.5 
Q 32.28125 48.484375 27.875 48.484375 
Q 21.1875 48.484375 17.84375 46.4375 
Q 14.5 44.390625 14.5 40.28125 
Q 14.5 37.15625 16.890625 35.375 
Q 19.28125 33.59375 26.515625 31.984375 
L 29.59375 31.296875 
Q 39.15625 29.25 43.1875 25.515625 
Q 47.21875 21.78125 47.21875 15.09375 
Q 47.21875 7.46875 41.1875 3.015625 
Q 35.15625 -1.421875 24.609375 -1.421875 
Q 20.21875 -1.421875 15.453125 -0.5625 
Q 10.6875 0.296875 5.421875 2 
L 5.421875 11.28125 
Q 10.40625 8.6875 15.234375 7.390625 
Q 20.0625 6.109375 24.8125 6.109375 
Q 31.15625 6.109375 34.5625 8.28125 
Q 37.984375 10.453125 37.984375 14.40625 
Q 37.984375 18.0625 35.515625 20.015625 
Q 33.0625 21.96875 24.703125 23.78125 
L 21.578125 24.515625 
Q 13.234375 26.265625 9.515625 29.90625 
Q 5.8125 33.546875 5.8125 39.890625 
Q 5.8125 47.609375 11.28125 51.796875 
Q 16.75 56 26.8125 56 
Q 31.78125 56 36.171875 55.265625 
Q 40.578125 54.546875 44.28125 53.078125 
z
" id="DejaVuSans-115"/>
      <path d="M 30.609375 48.390625 
Q 23.390625 48.390625 19.1875 42.75 
Q 14.984375 37.109375 14.984375 27.296875 
Q 14.984375 17.484375 19.15625 11.84375 
Q 23.34375 6.203125 30.609375 6.203125 
Q 37.796875 6.203125 41.984375 11.859375 
Q 46.1875 17.53125 46.1875 27.296875 
Q 46.1875 37.015625 41.984375 42.703125 
Q 37.796875 48.390625 30.609375 48.390625 
z
M 30.609375 56 
Q 42.328125 56 49.015625 48.375 
Q 55.71875 40.765625 55.71875 27.296875 
Q 55.71875 13.875 49.015625 6.21875 
Q 42.328125 -1.421875 30.609375 -1.421875 
Q 18.84375 -1.421875 12.171875 6.21875 
Q 5.515625 13.875 5.515625 27.296875 
Q 5.515625 40.765625 12.171875 48.375 
Q 18.84375 56 30.609375 56 
z
" id="DejaVuSans-111"/>
      <path d="M 45.40625 46.390625 
L 45.40625 75.984375 
L 54.390625 75.984375 
L 54.390625 0 
L 45.40625 0 
L 45.40625 8.203125 
Q 42.578125 3.328125 38.25 0.953125 
Q 33.9375 -1.421875 27.875 -1.421875 
Q 17.96875 -1.421875 11.734375 6.484375 
Q 5.515625 14.40625 5.515625 27.296875 
Q 5.515625 40.1875 11.734375 48.09375 
Q 17.96875 56 27.875 56 
Q 33.9375 56 38.25 53.625 
Q 42.578125 51.265625 45.40625 46.390625 
z
M 14.796875 27.296875 
Q 14.796875 17.390625 18.875 11.75 
Q 22.953125 6.109375 30.078125 6.109375 
Q 37.203125 6.109375 41.296875 11.75 
Q 45.40625 17.390625 45.40625 27.296875 
Q 45.40625 37.203125 41.296875 42.84375 
Q 37.203125 48.484375 30.078125 48.484375 
Q 22.953125 48.484375 18.875 42.84375 
Q 14.796875 37.203125 14.796875 27.296875 
z
" id="DejaVuSans-100"/>
      <path d="M 56.203125 29.59375 
L 56.203125 25.203125 
L 14.890625 25.203125 
Q 15.484375 15.921875 20.484375 11.0625 
Q 25.484375 6.203125 34.421875 6.203125 
Q 39.59375 6.203125 44.453125 7.46875 
Q 49.3125 8.734375 54.109375 11.28125 
L 54.109375 2.78125 
Q 49.265625 0.734375 44.1875 -0.34375 
Q 39.109375 -1.421875 33.890625 -1.421875 
Q 20.796875 -1.421875 13.15625 6.1875 
Q 5.515625 13.8125 5.515625 26.8125 
Q 5.515625 40.234375 12.765625 48.109375 
Q 20.015625 56 32.328125 56 
Q 43.359375 56 49.78125 48.890625 
Q 56.203125 41.796875 56.203125 29.59375 
z
M 47.21875 32.234375 
Q 47.125 39.59375 43.09375 43.984375 
Q 39.0625 48.390625 32.421875 48.390625 
Q 24.90625 48.390625 20.390625 44.140625 
Q 15.875 39.890625 15.1875 32.171875 
z
" id="DejaVuSans-101"/>
     </defs>
     <g transform="translate(237.0975 331.916562)scale(0.1 -0.1)">
      <use xlink:href="#DejaVuSans-69"/>
      <use x="63.183594" xlink:href="#DejaVuSans-112"/>
      <use x="126.660156" xlink:href="#DejaVuSans-105"/>
      <use x="154.443359" xlink:href="#DejaVuSans-115"/>
      <use x="206.542969" xlink:href="#DejaVuSans-111"/>
      <use x="267.724609" xlink:href="#DejaVuSans-100"/>
      <use x="331.201172" xlink:href="#DejaVuSans-101"/>
     </g>
    </g>
   </g>
   <g id="matplotlib.axis_2">
    <g id="ytick_1">
     <g id="line2d_17">
      <path clip-path="url(#pde67f144df)" d="M 63.47 291.217353 
L 450 291.217353 
" style="fill:none;stroke:#b0b0b0;stroke-linecap:square;stroke-width:0.8;"/>
     </g>
     <g id="line2d_18">
      <defs>
       <path d="M 0 0 
L -3.5 0 
" id="mf53ac1bb30" style="stroke:#000000;stroke-width:0.8;"/>
      </defs>
      <g>
       <use style="stroke:#000000;stroke-width:0.8;" x="63.47" xlink:href="#mf53ac1bb30" y="291.217353"/>
      </g>
     </g>
     <g id="text_10">
      <!-- 0 -->
      <g transform="translate(50.1075 295.016572)scale(0.1 -0.1)">
       <use xlink:href="#DejaVuSans-48"/>
      </g>
     </g>
    </g>
    <g id="ytick_2">
     <g id="line2d_19">
      <path clip-path="url(#pde67f144df)" d="M 63.47 246.655801 
L 450 246.655801 
" style="fill:none;stroke:#b0b0b0;stroke-linecap:square;stroke-width:0.8;"/>
     </g>
     <g id="line2d_20">
      <g>
       <use style="stroke:#000000;stroke-width:0.8;" x="63.47" xlink:href="#mf53ac1bb30" y="246.655801"/>
      </g>
     </g>
     <g id="text_11">
      <!-- 2000 -->
      <g transform="translate(31.02 250.45502)scale(0.1 -0.1)">
       <use xlink:href="#DejaVuSans-50"/>
       <use x="63.623047" xlink:href="#DejaVuSans-48"/>
       <use x="127.246094" xlink:href="#DejaVuSans-48"/>
       <use x="190.869141" xlink:href="#DejaVuSans-48"/>
      </g>
     </g>
    </g>
    <g id="ytick_3">
     <g id="line2d_21">
      <path clip-path="url(#pde67f144df)" d="M 63.47 202.094248 
L 450 202.094248 
" style="fill:none;stroke:#b0b0b0;stroke-linecap:square;stroke-width:0.8;"/>
     </g>
     <g id="line2d_22">
      <g>
       <use style="stroke:#000000;stroke-width:0.8;" x="63.47" xlink:href="#mf53ac1bb30" y="202.094248"/>
      </g>
     </g>
     <g id="text_12">
      <!-- 4000 -->
      <g transform="translate(31.02 205.893467)scale(0.1 -0.1)">
       <use xlink:href="#DejaVuSans-52"/>
       <use x="63.623047" xlink:href="#DejaVuSans-48"/>
       <use x="127.246094" xlink:href="#DejaVuSans-48"/>
       <use x="190.869141" xlink:href="#DejaVuSans-48"/>
      </g>
     </g>
    </g>
    <g id="ytick_4">
     <g id="line2d_23">
      <path clip-path="url(#pde67f144df)" d="M 63.47 157.532696 
L 450 157.532696 
" style="fill:none;stroke:#b0b0b0;stroke-linecap:square;stroke-width:0.8;"/>
     </g>
     <g id="line2d_24">
      <g>
       <use style="stroke:#000000;stroke-width:0.8;" x="63.47" xlink:href="#mf53ac1bb30" y="157.532696"/>
      </g>
     </g>
     <g id="text_13">
      <!-- 6000 -->
      <g transform="translate(31.02 161.331915)scale(0.1 -0.1)">
       <use xlink:href="#DejaVuSans-54"/>
       <use x="63.623047" xlink:href="#DejaVuSans-48"/>
       <use x="127.246094" xlink:href="#DejaVuSans-48"/>
       <use x="190.869141" xlink:href="#DejaVuSans-48"/>
      </g>
     </g>
    </g>
    <g id="ytick_5">
     <g id="line2d_25">
      <path clip-path="url(#pde67f144df)" d="M 63.47 112.971143 
L 450 112.971143 
" style="fill:none;stroke:#b0b0b0;stroke-linecap:square;stroke-width:0.8;"/>
     </g>
     <g id="line2d_26">
      <g>
       <use style="stroke:#000000;stroke-width:0.8;" x="63.47" xlink:href="#mf53ac1bb30" y="112.971143"/>
      </g>
     </g>
     <g id="text_14">
      <!-- 8000 -->
      <g transform="translate(31.02 116.770362)scale(0.1 -0.1)">
       <use xlink:href="#DejaVuSans-56"/>
       <use x="63.623047" xlink:href="#DejaVuSans-48"/>
       <use x="127.246094" xlink:href="#DejaVuSans-48"/>
       <use x="190.869141" xlink:href="#DejaVuSans-48"/>
      </g>
     </g>
    </g>
    <g id="ytick_6">
     <g id="line2d_27">
      <path clip-path="url(#pde67f144df)" d="M 63.47 68.409591 
L 450 68.409591 
" style="fill:none;stroke:#b0b0b0;stroke-linecap:square;stroke-width:0.8;"/>
     </g>
     <g id="line2d_28">
      <g>
       <use style="stroke:#000000;stroke-width:0.8;" x="63.47" xlink:href="#mf53ac1bb30" y="68.409591"/>
      </g>
     </g>
     <g id="text_15">
      <!-- 10000 -->
      <g transform="translate(24.6575 72.20881)scale(0.1 -0.1)">
       <use xlink:href="#DejaVuSans-49"/>
       <use x="63.623047" xlink:href="#DejaVuSans-48"/>
       <use x="127.246094" xlink:href="#DejaVuSans-48"/>
       <use x="190.869141" xlink:href="#DejaVuSans-48"/>
       <use x="254.492188" xlink:href="#DejaVuSans-48"/>
      </g>
     </g>
    </g>
    <g id="text_16">
     <!-- Accumulated over episode -->
     <defs>
      <path d="M 34.1875 63.1875 
L 20.796875 26.90625 
L 47.609375 26.90625 
z
M 28.609375 72.90625 
L 39.796875 72.90625 
L 67.578125 0 
L 57.328125 0 
L 50.6875 18.703125 
L 17.828125 18.703125 
L 11.1875 0 
L 0.78125 0 
z
" id="DejaVuSans-65"/>
      <path d="M 48.78125 52.59375 
L 48.78125 44.1875 
Q 44.96875 46.296875 41.140625 47.34375 
Q 37.3125 48.390625 33.40625 48.390625 
Q 24.65625 48.390625 19.8125 42.84375 
Q 14.984375 37.3125 14.984375 27.296875 
Q 14.984375 17.28125 19.8125 11.734375 
Q 24.65625 6.203125 33.40625 6.203125 
Q 37.3125 6.203125 41.140625 7.25 
Q 44.96875 8.296875 48.78125 10.40625 
L 48.78125 2.09375 
Q 45.015625 0.34375 40.984375 -0.53125 
Q 36.96875 -1.421875 32.421875 -1.421875 
Q 20.0625 -1.421875 12.78125 6.34375 
Q 5.515625 14.109375 5.515625 27.296875 
Q 5.515625 40.671875 12.859375 48.328125 
Q 20.21875 56 33.015625 56 
Q 37.15625 56 41.109375 55.140625 
Q 45.0625 54.296875 48.78125 52.59375 
z
" id="DejaVuSans-99"/>
      <path d="M 8.5 21.578125 
L 8.5 54.6875 
L 17.484375 54.6875 
L 17.484375 21.921875 
Q 17.484375 14.15625 20.5 10.265625 
Q 23.53125 6.390625 29.59375 6.390625 
Q 36.859375 6.390625 41.078125 11.03125 
Q 45.3125 15.671875 45.3125 23.6875 
L 45.3125 54.6875 
L 54.296875 54.6875 
L 54.296875 0 
L 45.3125 0 
L 45.3125 8.40625 
Q 42.046875 3.421875 37.71875 1 
Q 33.40625 -1.421875 27.6875 -1.421875 
Q 18.265625 -1.421875 13.375 4.4375 
Q 8.5 10.296875 8.5 21.578125 
z
M 31.109375 56 
z
" id="DejaVuSans-117"/>
      <path d="M 52 44.1875 
Q 55.375 50.25 60.0625 53.125 
Q 64.75 56 71.09375 56 
Q 79.640625 56 84.28125 50.015625 
Q 88.921875 44.046875 88.921875 33.015625 
L 88.921875 0 
L 79.890625 0 
L 79.890625 32.71875 
Q 79.890625 40.578125 77.09375 44.375 
Q 74.3125 48.1875 68.609375 48.1875 
Q 61.625 48.1875 57.5625 43.546875 
Q 53.515625 38.921875 53.515625 30.90625 
L 53.515625 0 
L 44.484375 0 
L 44.484375 32.71875 
Q 44.484375 40.625 41.703125 44.40625 
Q 38.921875 48.1875 33.109375 48.1875 
Q 26.21875 48.1875 22.15625 43.53125 
Q 18.109375 38.875 18.109375 30.90625 
L 18.109375 0 
L 9.078125 0 
L 9.078125 54.6875 
L 18.109375 54.6875 
L 18.109375 46.1875 
Q 21.1875 51.21875 25.484375 53.609375 
Q 29.78125 56 35.6875 56 
Q 41.65625 56 45.828125 52.96875 
Q 50 49.953125 52 44.1875 
z
" id="DejaVuSans-109"/>
      <path d="M 9.421875 75.984375 
L 18.40625 75.984375 
L 18.40625 0 
L 9.421875 0 
z
" id="DejaVuSans-108"/>
      <path d="M 34.28125 27.484375 
Q 23.390625 27.484375 19.1875 25 
Q 14.984375 22.515625 14.984375 16.5 
Q 14.984375 11.71875 18.140625 8.90625 
Q 21.296875 6.109375 26.703125 6.109375 
Q 34.1875 6.109375 38.703125 11.40625 
Q 43.21875 16.703125 43.21875 25.484375 
L 43.21875 27.484375 
z
M 52.203125 31.203125 
L 52.203125 0 
L 43.21875 0 
L 43.21875 8.296875 
Q 40.140625 3.328125 35.546875 0.953125 
Q 30.953125 -1.421875 24.3125 -1.421875 
Q 15.921875 -1.421875 10.953125 3.296875 
Q 6 8.015625 6 15.921875 
Q 6 25.140625 12.171875 29.828125 
Q 18.359375 34.515625 30.609375 34.515625 
L 43.21875 34.515625 
L 43.21875 35.40625 
Q 43.21875 41.609375 39.140625 45 
Q 35.0625 48.390625 27.6875 48.390625 
Q 23 48.390625 18.546875 47.265625 
Q 14.109375 46.140625 10.015625 43.890625 
L 10.015625 52.203125 
Q 14.9375 54.109375 19.578125 55.046875 
Q 24.21875 56 28.609375 56 
Q 40.484375 56 46.34375 49.84375 
Q 52.203125 43.703125 52.203125 31.203125 
z
" id="DejaVuSans-97"/>
      <path d="M 18.3125 70.21875 
L 18.3125 54.6875 
L 36.8125 54.6875 
L 36.8125 47.703125 
L 18.3125 47.703125 
L 18.3125 18.015625 
Q 18.3125 11.328125 20.140625 9.421875 
Q 21.96875 7.515625 27.59375 7.515625 
L 36.8125 7.515625 
L 36.8125 0 
L 27.59375 0 
Q 17.1875 0 13.234375 3.875 
Q 9.28125 7.765625 9.28125 18.015625 
L 9.28125 47.703125 
L 2.6875 47.703125 
L 2.6875 54.6875 
L 9.28125 54.6875 
L 9.28125 70.21875 
z
" id="DejaVuSans-116"/>
      <path id="DejaVuSans-32"/>
      <path d="M 2.984375 54.6875 
L 12.5 54.6875 
L 29.59375 8.796875 
L 46.6875 54.6875 
L 56.203125 54.6875 
L 35.6875 0 
L 23.484375 0 
z
" id="DejaVuSans-118"/>
      <path d="M 41.109375 46.296875 
Q 39.59375 47.171875 37.8125 47.578125 
Q 36.03125 48 33.890625 48 
Q 26.265625 48 22.1875 43.046875 
Q 18.109375 38.09375 18.109375 28.8125 
L 18.109375 0 
L 9.078125 0 
L 9.078125 54.6875 
L 18.109375 54.6875 
L 18.109375 46.1875 
Q 20.953125 51.171875 25.484375 53.578125 
Q 30.03125 56 36.53125 56 
Q 37.453125 56 38.578125 55.875 
Q 39.703125 55.765625 41.0625 55.515625 
z
" id="DejaVuSans-114"/>
     </defs>
     <g transform="translate(18.577813 231.213437)rotate(-90)scale(0.1 -0.1)">
      <use xlink:href="#DejaVuSans-65"/>
      <use x="68.392578" xlink:href="#DejaVuSans-99"/>
      <use x="123.373047" xlink:href="#DejaVuSans-99"/>
      <use x="178.353516" xlink:href="#DejaVuSans-117"/>
      <use x="241.732422" xlink:href="#DejaVuSans-109"/>
      <use x="339.144531" xlink:href="#DejaVuSans-117"/>
      <use x="402.523438" xlink:href="#DejaVuSans-108"/>
      <use x="430.306641" xlink:href="#DejaVuSans-97"/>
      <use x="491.585938" xlink:href="#DejaVuSans-116"/>
      <use x="530.794922" xlink:href="#DejaVuSans-101"/>
      <use x="592.318359" xlink:href="#DejaVuSans-100"/>
      <use x="655.794922" xlink:href="#DejaVuSans-32"/>
      <use x="687.582031" xlink:href="#DejaVuSans-111"/>
      <use x="748.763672" xlink:href="#DejaVuSans-118"/>
      <use x="807.943359" xlink:href="#DejaVuSans-101"/>
      <use x="869.466797" xlink:href="#DejaVuSans-114"/>
      <use x="910.580078" xlink:href="#DejaVuSans-32"/>
      <use x="942.367188" xlink:href="#DejaVuSans-101"/>
      <use x="1003.890625" xlink:href="#DejaVuSans-112"/>
      <use x="1067.367188" xlink:href="#DejaVuSans-105"/>
      <use x="1095.150391" xlink:href="#DejaVuSans-115"/>
      <use x="1147.25" xlink:href="#DejaVuSans-111"/>
      <use x="1208.431641" xlink:href="#DejaVuSans-100"/>
      <use x="1271.908203" xlink:href="#DejaVuSans-101"/>
     </g>
    </g>
   </g>
   <g id="line2d_29">
    <path clip-path="url(#pde67f144df)" d="M 81.039545 282.282762 
L 83.397874 278.673276 
L 85.756202 275.977302 
L 88.11453 282.639254 
L 90.472858 280.478019 
L 92.831187 223.483793 
L 95.189515 253.206349 
L 97.547843 251.067394 
L 99.906171 252.003187 
L 102.2645 258.68742 
L 104.622828 245.140708 
L 106.981156 268.669208 
L 109.339484 258.286366 
L 111.697813 279.854157 
L 114.056141 282.862062 
L 116.414469 274.038875 
L 118.772797 273.125363 
L 121.131126 274.685017 
L 123.489454 286.204179 
L 125.847782 267.354642 
L 128.20611 285.691721 
L 130.564439 270.719039 
L 132.922767 283.775574 
L 135.281095 271.142374 
L 137.639423 285.09014 
L 139.997752 279.341699 
L 142.35608 272.947117 
L 144.714408 287.162252 
L 147.072736 275.955022 
L 149.431065 268.468681 
L 151.789393 282.928904 
L 154.147721 263.633752 
L 156.506049 280.945915 
L 158.864378 278.628715 
L 161.222706 269.694123 
L 163.581034 282.059954 
L 165.939362 284.109786 
L 168.297691 278.138538 
L 170.656019 283.37452 
L 173.014347 282.616974 
L 175.372675 241.46438 
L 177.731004 283.931539 
L 180.089332 274.729579 
L 182.44766 260.870936 
L 184.805988 259.734616 
L 187.164317 268.379558 
L 189.522645 285.803125 
L 191.880973 271.877639 
L 194.239301 280.923635 
L 196.59763 287.763833 
L 198.955958 271.253778 
L 201.314286 286.159617 
L 203.672614 274.439929 
L 206.030943 274.506771 
L 208.389271 277.492395 
L 210.747599 267.532888 
L 213.105927 275.398002 
L 215.464256 247.101416 
L 217.822584 255.167057 
L 220.180912 275.420283 
L 222.53924 258.219524 
L 224.897569 270.696758 
L 227.255897 277.380991 
L 229.614225 265.995515 
L 231.972553 278.049414 
L 234.330882 275.531687 
L 236.68921 268.713769 
L 239.047538 242.667542 
L 241.405866 278.071695 
L 243.764195 262.98761 
L 246.122523 285.045578 
L 248.480851 280.322054 
L 250.839179 258.486893 
L 253.197508 278.428188 
L 255.555836 277.893449 
L 257.914164 278.762399 
L 260.272492 276.066425 
L 262.630821 270.317985 
L 264.989149 277.35871 
L 267.347477 277.403272 
L 269.705805 272.813432 
L 272.064134 263.032171 
L 274.422462 243.157719 
L 276.78079 275.442564 
L 281.497447 284.889613 
L 283.855775 284.666805 
L 286.214103 266.619376 
L 288.572431 250.978271 
L 290.93076 273.771505 
L 293.289088 281.057319 
L 295.647416 268.245873 
L 298.005744 281.525216 
L 300.364073 278.829242 
L 302.722401 272.412378 
L 305.080729 274.930106 
L 307.439057 267.844819 
L 309.797386 278.49503 
L 312.155714 285.246105 
L 314.514042 253.495999 
L 319.230699 279.921 
L 321.589027 269.983773 
L 323.947355 248.34914 
L 326.305683 260.893217 
L 328.664012 268.513242 
L 331.02234 287.318217 
L 333.380668 277.893449 
L 335.738996 269.58272 
L 338.097325 269.627281 
L 340.455653 266.864465 
L 342.813981 270.607635 
L 345.172309 259.957424 
L 347.530638 264.302176 
L 349.888966 252.136872 
L 352.247294 271.743955 
L 354.605622 261.450236 
L 356.963951 285.691721 
L 359.322279 258.754262 
L 361.680607 263.878841 
L 364.038935 244.650531 
L 366.397264 224.129936 
L 368.755592 258.865666 
L 371.11392 285.803125 
L 373.472248 268.334996 
L 375.830577 282.839781 
L 378.188905 275.04151 
L 380.547233 277.871168 
L 382.905561 275.553968 
L 385.26389 274.662736 
L 387.622218 275.308879 
L 389.980546 275.464844 
L 392.338874 269.87237 
L 394.697203 261.427955 
L 397.055531 233.666108 
L 399.413859 277.536957 
L 401.772187 275.420283 
L 404.130516 256.570746 
L 406.488844 268.201311 
L 408.847172 270.540793 
L 411.2055 264.213052 
L 413.563829 281.436092 
L 415.922157 283.820136 
L 418.280485 285.602598 
L 420.638813 281.0796 
L 422.997142 288.766468 
L 425.35547 282.438727 
L 427.713798 255.768638 
L 430.072126 254.67688 
L 432.430455 274.885544 
L 432.430455 274.885544 
" style="fill:none;stroke:#1f77b4;stroke-linecap:square;stroke-width:0.8;"/>
   </g>
   <g id="line2d_30">
    <path clip-path="url(#pde67f144df)" d="M 81.039545 251.602133 
L 83.397874 259.133035 
L 85.756202 255.679515 
L 88.11453 250.421252 
L 90.472858 256.281096 
L 92.831187 186.898759 
L 95.189515 187.121567 
L 97.547843 191.666845 
L 99.906171 198.68529 
L 102.2645 177.295744 
L 104.622828 184.782085 
L 106.981156 191.666845 
L 109.339484 217.312018 
L 111.697813 121.036784 
L 114.056141 197.615812 
L 116.414469 150.670217 
L 118.772797 180.080841 
L 121.131126 184.804366 
L 123.489454 168.026941 
L 125.847782 233.354177 
L 128.20611 215.707803 
L 130.564439 210.249012 
L 132.922767 161.231305 
L 135.281095 227.516614 
L 137.639423 160.273231 
L 139.997752 185.405947 
L 142.35608 207.553038 
L 144.714408 193.449307 
L 147.072736 207.174265 
L 149.431065 165.665179 
L 151.789393 154.324264 
L 154.147721 198.529324 
L 156.506049 223.10502 
L 158.864378 127.899264 
L 161.222706 138.103859 
L 163.581034 195.120365 
L 165.939362 154.146018 
L 168.297691 217.824476 
L 170.656019 165.910268 
L 173.014347 148.041085 
L 175.372675 227.895387 
L 177.731004 194.808434 
L 180.089332 232.641193 
L 182.44766 183.111027 
L 184.805988 180.392772 
L 187.164317 238.411914 
L 189.522645 172.416254 
L 191.880973 219.718342 
L 194.239301 184.447874 
L 196.59763 190.731052 
L 198.955958 239.904726 
L 201.314286 168.361153 
L 203.672614 203.542499 
L 206.030943 194.050888 
L 208.389271 192.312988 
L 210.747599 203.609341 
L 213.105927 199.420555 
L 215.464256 182.687692 
L 217.822584 193.761238 
L 220.180912 220.832381 
L 222.53924 193.315622 
L 224.897569 178.89996 
L 227.255897 194.407381 
L 229.614225 250.64406 
L 231.972553 162.880082 
L 234.330882 182.308919 
L 236.68921 155.326899 
L 239.047538 186.386301 
L 241.405866 195.476858 
L 243.764195 223.327828 
L 246.122523 186.831917 
L 248.480851 175.112228 
L 250.839179 160.362354 
L 253.197508 150.737059 
L 255.555836 180.03628 
L 257.914164 179.924876 
L 262.630821 224.129936 
L 264.989149 214.593764 
L 267.347477 221.589928 
L 269.705805 244.138073 
L 272.064134 257.127766 
L 274.422462 241.375257 
L 276.78079 196.925108 
L 279.139118 148.999159 
L 281.497447 177.585394 
L 283.855775 156.908834 
L 286.214103 187.856832 
L 288.572431 206.015665 
L 290.93076 214.883414 
L 293.289088 169.163261 
L 295.647416 191.444037 
L 298.005744 203.787587 
L 300.364073 198.507043 
L 302.722401 179.679787 
L 305.080729 199.442836 
L 307.439057 196.145281 
L 309.797386 189.79526 
L 312.155714 198.41792 
L 314.514042 165.954829 
L 316.87237 220.409046 
L 319.230699 128.745933 
L 321.589027 152.47496 
L 323.947355 197.54897 
L 326.305683 204.834784 
L 328.664012 225.221694 
L 331.02234 145.657042 
L 333.380668 202.094248 
L 335.738996 178.766276 
L 338.097325 211.363051 
L 340.455653 210.093047 
L 342.813981 175.045386 
L 345.172309 177.429429 
L 347.530638 187.678586 
L 349.888966 195.298612 
L 352.247294 202.517583 
L 354.605622 229.432761 
L 356.963951 186.453143 
L 359.322279 181.818742 
L 361.680607 200.267225 
L 364.038935 208.243743 
L 366.397264 175.691528 
L 368.755592 218.069565 
L 371.11392 219.495535 
L 373.472248 182.242077 
L 375.830577 142.961068 
L 378.188905 172.126604 
L 380.547233 159.93902 
L 382.905561 167.024307 
L 385.26389 136.70017 
L 387.622218 194.852996 
L 389.980546 188.124202 
L 392.338874 177.028375 
L 394.697203 151.472325 
L 397.055531 260.804094 
L 399.413859 206.973738 
L 401.772187 228.719776 
L 404.130516 216.643595 
L 406.488844 196.078439 
L 408.847172 193.360184 
L 411.2055 186.497705 
L 413.563829 191.24351 
L 415.922157 221.500804 
L 418.280485 205.926542 
L 420.638813 230.769607 
L 422.997142 203.58706 
L 425.35547 199.531959 
L 427.713798 207.909531 
L 430.072126 185.049455 
L 432.430455 200.445471 
L 432.430455 200.445471 
" style="fill:none;stroke:#ff7f0e;stroke-linecap:square;stroke-width:0.8;"/>
   </g>
   <g id="line2d_31">
    <path clip-path="url(#pde67f144df)" d="M 81.039545 290.816299 
L 83.397874 290.794018 
L 85.756202 290.972265 
L 88.11453 290.994545 
L 90.472858 290.727176 
L 92.831187 38.085455 
L 95.189515 227.850826 
L 97.547843 232.262419 
L 99.906171 233.978039 
L 102.2645 191.53316 
L 104.622828 187.723148 
L 106.981156 277.492395 
L 109.339484 231.103819 
L 111.697813 236.428924 
L 114.056141 282.750658 
L 116.414469 234.646462 
L 118.772797 290.994545 
L 144.714408 290.994545 
L 147.072736 280.522581 
L 149.431065 245.073866 
L 151.789393 242.33333 
L 154.147721 278.428188 
L 156.506049 290.994545 
L 158.864378 250.688621 
L 161.222706 230.346273 
L 163.581034 264.836914 
L 165.939362 290.994545 
L 168.297691 290.994545 
L 170.656019 206.260753 
L 173.014347 275.33116 
L 175.372675 269.916931 
L 177.731004 290.994545 
L 180.089332 290.994545 
L 182.44766 202.874075 
L 184.805988 144.052826 
L 187.164317 290.994545 
L 196.59763 290.994545 
L 198.955958 270.629916 
L 201.314286 286.159617 
L 203.672614 290.771738 
L 206.030943 290.994545 
L 208.389271 267.933942 
L 210.747599 251.780379 
L 213.105927 258.041277 
L 215.464256 174.956263 
L 217.822584 191.711407 
L 220.180912 259.311282 
L 222.53924 230.457676 
L 224.897569 222.726247 
L 227.255897 290.192438 
L 229.614225 290.994545 
L 231.972553 290.905422 
L 234.330882 290.994545 
L 236.68921 221.055189 
L 239.047538 203.832149 
L 241.405866 242.823507 
L 243.764195 279.230296 
L 246.122523 287.38506 
L 248.480851 290.860861 
L 250.839179 95.124242 
L 253.197508 241.575784 
L 255.555836 289.434891 
L 257.914164 229.276795 
L 260.272492 290.994545 
L 283.855775 290.994545 
L 286.214103 226.068364 
L 288.572431 199.910732 
L 290.93076 282.683816 
L 293.289088 236.919102 
L 295.647416 247.591593 
L 298.005744 286.471548 
L 300.364073 281.012758 
L 302.722401 260.915498 
L 305.080729 288.142606 
L 307.439057 270.719039 
L 309.797386 266.285165 
L 312.155714 290.994545 
L 314.514042 75.650843 
L 316.87237 241.286134 
L 319.230699 240.528587 
L 321.589027 263.009891 
L 323.947355 130.305587 
L 326.305683 238.657002 
L 328.664012 290.994545 
L 333.380668 290.994545 
L 335.738996 220.565012 
L 338.097325 274.840983 
L 340.455653 244.494565 
L 342.813981 265.126564 
L 345.172309 181.439969 
L 347.530638 203.787587 
L 349.888966 197.794059 
L 352.247294 269.203946 
L 354.605622 290.994545 
L 356.963951 290.994545 
L 359.322279 219.807465 
L 361.680607 254.899688 
L 364.038935 262.452871 
L 366.397264 90.445279 
L 368.755592 275.197475 
L 371.11392 290.994545 
L 373.472248 265.104283 
L 375.830577 255.54583 
L 378.188905 259.066193 
L 380.547233 255.746357 
L 382.905561 220.342204 
L 385.26389 216.042014 
L 387.622218 282.706097 
L 389.980546 265.059722 
L 392.338874 202.918637 
L 394.697203 243.892985 
L 397.055531 266.040076 
L 399.413859 279.586788 
L 401.772187 290.994545 
L 404.130516 261.093744 
L 406.488844 287.763833 
L 408.847172 290.994545 
L 425.35547 290.994545 
L 427.713798 261.717605 
L 430.072126 133.669985 
L 432.430455 261.583921 
L 432.430455 261.583921 
" style="fill:none;stroke:#2ca02c;stroke-linecap:square;stroke-width:0.8;"/>
   </g>
   <g id="patch_3">
    <path d="M 63.47 303.64 
L 63.47 25.44 
" style="fill:none;stroke:#000000;stroke-linecap:square;stroke-linejoin:miter;stroke-width:0.8;"/>
   </g>
   <g id="patch_4">
    <path d="M 450 303.64 
L 450 25.44 
" style="fill:none;stroke:#000000;stroke-linecap:square;stroke-linejoin:miter;stroke-width:0.8;"/>
   </g>
   <g id="patch_5">
    <path d="M 63.47 303.64 
L 450 303.64 
" style="fill:none;stroke:#000000;stroke-linecap:square;stroke-linejoin:miter;stroke-width:0.8;"/>
   </g>
   <g id="patch_6">
    <path d="M 63.47 25.44 
L 450 25.44 
" style="fill:none;stroke:#000000;stroke-linecap:square;stroke-linejoin:miter;stroke-width:0.8;"/>
   </g>
   <g id="text_17">
    <!-- Politic over episodes (Training) -->
    <defs>
     <path d="M 19.671875 64.796875 
L 19.671875 37.40625 
L 32.078125 37.40625 
Q 38.96875 37.40625 42.71875 40.96875 
Q 46.484375 44.53125 46.484375 51.125 
Q 46.484375 57.671875 42.71875 61.234375 
Q 38.96875 64.796875 32.078125 64.796875 
z
M 9.8125 72.90625 
L 32.078125 72.90625 
Q 44.34375 72.90625 50.609375 67.359375 
Q 56.890625 61.8125 56.890625 51.125 
Q 56.890625 40.328125 50.609375 34.8125 
Q 44.34375 29.296875 32.078125 29.296875 
L 19.671875 29.296875 
L 19.671875 0 
L 9.8125 0 
z
" id="DejaVuSans-80"/>
     <path d="M 31 75.875 
Q 24.46875 64.65625 21.28125 53.65625 
Q 18.109375 42.671875 18.109375 31.390625 
Q 18.109375 20.125 21.3125 9.0625 
Q 24.515625 -2 31 -13.1875 
L 23.1875 -13.1875 
Q 15.875 -1.703125 12.234375 9.375 
Q 8.59375 20.453125 8.59375 31.390625 
Q 8.59375 42.28125 12.203125 53.3125 
Q 15.828125 64.359375 23.1875 75.875 
z
" id="DejaVuSans-40"/>
     <path d="M -0.296875 72.90625 
L 61.375 72.90625 
L 61.375 64.59375 
L 35.5 64.59375 
L 35.5 0 
L 25.59375 0 
L 25.59375 64.59375 
L -0.296875 64.59375 
z
" id="DejaVuSans-84"/>
     <path d="M 54.890625 33.015625 
L 54.890625 0 
L 45.90625 0 
L 45.90625 32.71875 
Q 45.90625 40.484375 42.875 44.328125 
Q 39.84375 48.1875 33.796875 48.1875 
Q 26.515625 48.1875 22.3125 43.546875 
Q 18.109375 38.921875 18.109375 30.90625 
L 18.109375 0 
L 9.078125 0 
L 9.078125 54.6875 
L 18.109375 54.6875 
L 18.109375 46.1875 
Q 21.34375 51.125 25.703125 53.5625 
Q 30.078125 56 35.796875 56 
Q 45.21875 56 50.046875 50.171875 
Q 54.890625 44.34375 54.890625 33.015625 
z
" id="DejaVuSans-110"/>
     <path d="M 45.40625 27.984375 
Q 45.40625 37.75 41.375 43.109375 
Q 37.359375 48.484375 30.078125 48.484375 
Q 22.859375 48.484375 18.828125 43.109375 
Q 14.796875 37.75 14.796875 27.984375 
Q 14.796875 18.265625 18.828125 12.890625 
Q 22.859375 7.515625 30.078125 7.515625 
Q 37.359375 7.515625 41.375 12.890625 
Q 45.40625 18.265625 45.40625 27.984375 
z
M 54.390625 6.78125 
Q 54.390625 -7.171875 48.1875 -13.984375 
Q 42 -20.796875 29.203125 -20.796875 
Q 24.46875 -20.796875 20.265625 -20.09375 
Q 16.0625 -19.390625 12.109375 -17.921875 
L 12.109375 -9.1875 
Q 16.0625 -11.328125 19.921875 -12.34375 
Q 23.78125 -13.375 27.78125 -13.375 
Q 36.625 -13.375 41.015625 -8.765625 
Q 45.40625 -4.15625 45.40625 5.171875 
L 45.40625 9.625 
Q 42.625 4.78125 38.28125 2.390625 
Q 33.9375 0 27.875 0 
Q 17.828125 0 11.671875 7.65625 
Q 5.515625 15.328125 5.515625 27.984375 
Q 5.515625 40.671875 11.671875 48.328125 
Q 17.828125 56 27.875 56 
Q 33.9375 56 38.28125 53.609375 
Q 42.625 51.21875 45.40625 46.390625 
L 45.40625 54.6875 
L 54.390625 54.6875 
z
" id="DejaVuSans-103"/>
     <path d="M 8.015625 75.875 
L 15.828125 75.875 
Q 23.140625 64.359375 26.78125 53.3125 
Q 30.421875 42.28125 30.421875 31.390625 
Q 30.421875 20.453125 26.78125 9.375 
Q 23.140625 -1.703125 15.828125 -13.1875 
L 8.015625 -13.1875 
Q 14.5 -2 17.703125 9.0625 
Q 20.90625 20.125 20.90625 31.390625 
Q 20.90625 42.671875 17.703125 53.65625 
Q 14.5 64.65625 8.015625 75.875 
z
" id="DejaVuSans-41"/>
    </defs>
    <g transform="translate(163.879375 19.44)scale(0.12 -0.12)">
     <use xlink:href="#DejaVuSans-80"/>
     <use x="60.255859" xlink:href="#DejaVuSans-111"/>
     <use x="121.4375" xlink:href="#DejaVuSans-108"/>
     <use x="149.220703" xlink:href="#DejaVuSans-105"/>
     <use x="177.003906" xlink:href="#DejaVuSans-116"/>
     <use x="216.212891" xlink:href="#DejaVuSans-105"/>
     <use x="243.996094" xlink:href="#DejaVuSans-99"/>
     <use x="298.976562" xlink:href="#DejaVuSans-32"/>
     <use x="330.763672" xlink:href="#DejaVuSans-111"/>
     <use x="391.945312" xlink:href="#DejaVuSans-118"/>
     <use x="451.125" xlink:href="#DejaVuSans-101"/>
     <use x="512.648438" xlink:href="#DejaVuSans-114"/>
     <use x="553.761719" xlink:href="#DejaVuSans-32"/>
     <use x="585.548828" xlink:href="#DejaVuSans-101"/>
     <use x="647.072266" xlink:href="#DejaVuSans-112"/>
     <use x="710.548828" xlink:href="#DejaVuSans-105"/>
     <use x="738.332031" xlink:href="#DejaVuSans-115"/>
     <use x="790.431641" xlink:href="#DejaVuSans-111"/>
     <use x="851.613281" xlink:href="#DejaVuSans-100"/>
     <use x="915.089844" xlink:href="#DejaVuSans-101"/>
     <use x="976.613281" xlink:href="#DejaVuSans-115"/>
     <use x="1028.712891" xlink:href="#DejaVuSans-32"/>
     <use x="1060.5" xlink:href="#DejaVuSans-40"/>
     <use x="1099.513672" xlink:href="#DejaVuSans-84"/>
     <use x="1160.378906" xlink:href="#DejaVuSans-114"/>
     <use x="1201.492188" xlink:href="#DejaVuSans-97"/>
     <use x="1262.771484" xlink:href="#DejaVuSans-105"/>
     <use x="1290.554688" xlink:href="#DejaVuSans-110"/>
     <use x="1353.933594" xlink:href="#DejaVuSans-105"/>
     <use x="1381.716797" xlink:href="#DejaVuSans-110"/>
     <use x="1445.095703" xlink:href="#DejaVuSans-103"/>
     <use x="1508.572266" xlink:href="#DejaVuSans-41"/>
    </g>
   </g>
   <g id="legend_1">
    <g id="patch_7">
     <path d="M 350.151563 77.474375 
L 443 77.474375 
Q 445 77.474375 445 75.474375 
L 445 32.44 
Q 445 30.44 443 30.44 
L 350.151563 30.44 
Q 348.151563 30.44 348.151563 32.44 
L 348.151563 75.474375 
Q 348.151563 77.474375 350.151563 77.474375 
z
" style="fill:#ffffff;opacity:0.8;stroke:#cccccc;stroke-linejoin:miter;"/>
    </g>
    <g id="line2d_32">
     <path d="M 352.151563 38.538437 
L 372.151563 38.538437 
" style="fill:none;stroke:#1f77b4;stroke-linecap:square;stroke-width:0.8;"/>
    </g>
    <g id="line2d_33"/>
    <g id="text_18">
     <!-- Stockouts -->
     <defs>
      <path d="M 53.515625 70.515625 
L 53.515625 60.890625 
Q 47.90625 63.578125 42.921875 64.890625 
Q 37.9375 66.21875 33.296875 66.21875 
Q 25.25 66.21875 20.875 63.09375 
Q 16.5 59.96875 16.5 54.203125 
Q 16.5 49.359375 19.40625 46.890625 
Q 22.3125 44.4375 30.421875 42.921875 
L 36.375 41.703125 
Q 47.40625 39.59375 52.65625 34.296875 
Q 57.90625 29 57.90625 20.125 
Q 57.90625 9.515625 50.796875 4.046875 
Q 43.703125 -1.421875 29.984375 -1.421875 
Q 24.8125 -1.421875 18.96875 -0.25 
Q 13.140625 0.921875 6.890625 3.21875 
L 6.890625 13.375 
Q 12.890625 10.015625 18.65625 8.296875 
Q 24.421875 6.59375 29.984375 6.59375 
Q 38.421875 6.59375 43.015625 9.90625 
Q 47.609375 13.234375 47.609375 19.390625 
Q 47.609375 24.75 44.3125 27.78125 
Q 41.015625 30.8125 33.5 32.328125 
L 27.484375 33.5 
Q 16.453125 35.6875 11.515625 40.375 
Q 6.59375 45.0625 6.59375 53.421875 
Q 6.59375 63.09375 13.40625 68.65625 
Q 20.21875 74.21875 32.171875 74.21875 
Q 37.3125 74.21875 42.625 73.28125 
Q 47.953125 72.359375 53.515625 70.515625 
z
" id="DejaVuSans-83"/>
      <path d="M 9.078125 75.984375 
L 18.109375 75.984375 
L 18.109375 31.109375 
L 44.921875 54.6875 
L 56.390625 54.6875 
L 27.390625 29.109375 
L 57.625 0 
L 45.90625 0 
L 18.109375 26.703125 
L 18.109375 0 
L 9.078125 0 
z
" id="DejaVuSans-107"/>
     </defs>
     <g transform="translate(380.151563 42.038437)scale(0.1 -0.1)">
      <use xlink:href="#DejaVuSans-83"/>
      <use x="63.476562" xlink:href="#DejaVuSans-116"/>
      <use x="102.685547" xlink:href="#DejaVuSans-111"/>
      <use x="163.867188" xlink:href="#DejaVuSans-99"/>
      <use x="218.847656" xlink:href="#DejaVuSans-107"/>
      <use x="276.710938" xlink:href="#DejaVuSans-111"/>
      <use x="337.892578" xlink:href="#DejaVuSans-117"/>
      <use x="401.271484" xlink:href="#DejaVuSans-116"/>
      <use x="440.480469" xlink:href="#DejaVuSans-115"/>
     </g>
    </g>
    <g id="line2d_34">
     <path d="M 352.151563 53.216562 
L 372.151563 53.216562 
" style="fill:none;stroke:#ff7f0e;stroke-linecap:square;stroke-width:0.8;"/>
    </g>
    <g id="line2d_35"/>
    <g id="text_19">
     <!-- Expirees -->
     <defs>
      <path d="M 54.890625 54.6875 
L 35.109375 28.078125 
L 55.90625 0 
L 45.3125 0 
L 29.390625 21.484375 
L 13.484375 0 
L 2.875 0 
L 24.125 28.609375 
L 4.6875 54.6875 
L 15.28125 54.6875 
L 29.78125 35.203125 
L 44.28125 54.6875 
z
" id="DejaVuSans-120"/>
     </defs>
     <g transform="translate(380.151563 56.716562)scale(0.1 -0.1)">
      <use xlink:href="#DejaVuSans-69"/>
      <use x="63.183594" xlink:href="#DejaVuSans-120"/>
      <use x="122.363281" xlink:href="#DejaVuSans-112"/>
      <use x="185.839844" xlink:href="#DejaVuSans-105"/>
      <use x="213.623047" xlink:href="#DejaVuSans-114"/>
      <use x="254.705078" xlink:href="#DejaVuSans-101"/>
      <use x="316.228516" xlink:href="#DejaVuSans-101"/>
      <use x="377.751953" xlink:href="#DejaVuSans-115"/>
     </g>
    </g>
    <g id="line2d_36">
     <path d="M 352.151563 67.894687 
L 372.151563 67.894687 
" style="fill:none;stroke:#2ca02c;stroke-linecap:square;stroke-width:0.8;"/>
    </g>
    <g id="line2d_37"/>
    <g id="text_20">
     <!-- DC Expirees -->
     <defs>
      <path d="M 19.671875 64.796875 
L 19.671875 8.109375 
L 31.59375 8.109375 
Q 46.6875 8.109375 53.6875 14.9375 
Q 60.6875 21.78125 60.6875 36.53125 
Q 60.6875 51.171875 53.6875 57.984375 
Q 46.6875 64.796875 31.59375 64.796875 
z
M 9.8125 72.90625 
L 30.078125 72.90625 
Q 51.265625 72.90625 61.171875 64.09375 
Q 71.09375 55.28125 71.09375 36.53125 
Q 71.09375 17.671875 61.125 8.828125 
Q 51.171875 0 30.078125 0 
L 9.8125 0 
z
" id="DejaVuSans-68"/>
      <path d="M 64.40625 67.28125 
L 64.40625 56.890625 
Q 59.421875 61.53125 53.78125 63.8125 
Q 48.140625 66.109375 41.796875 66.109375 
Q 29.296875 66.109375 22.65625 58.46875 
Q 16.015625 50.828125 16.015625 36.375 
Q 16.015625 21.96875 22.65625 14.328125 
Q 29.296875 6.6875 41.796875 6.6875 
Q 48.140625 6.6875 53.78125 8.984375 
Q 59.421875 11.28125 64.40625 15.921875 
L 64.40625 5.609375 
Q 59.234375 2.09375 53.4375 0.328125 
Q 47.65625 -1.421875 41.21875 -1.421875 
Q 24.65625 -1.421875 15.125 8.703125 
Q 5.609375 18.84375 5.609375 36.375 
Q 5.609375 53.953125 15.125 64.078125 
Q 24.65625 74.21875 41.21875 74.21875 
Q 47.75 74.21875 53.53125 72.484375 
Q 59.328125 70.75 64.40625 67.28125 
z
" id="DejaVuSans-67"/>
     </defs>
     <g transform="translate(380.151563 71.394687)scale(0.1 -0.1)">
      <use xlink:href="#DejaVuSans-68"/>
      <use x="77.001953" xlink:href="#DejaVuSans-67"/>
      <use x="146.826172" xlink:href="#DejaVuSans-32"/>
      <use x="178.613281" xlink:href="#DejaVuSans-69"/>
      <use x="241.796875" xlink:href="#DejaVuSans-120"/>
      <use x="300.976562" xlink:href="#DejaVuSans-112"/>
      <use x="364.453125" xlink:href="#DejaVuSans-105"/>
      <use x="392.236328" xlink:href="#DejaVuSans-114"/>
      <use x="433.318359" xlink:href="#DejaVuSans-101"/>
      <use x="494.841797" xlink:href="#DejaVuSans-101"/>
      <use x="556.365234" xlink:href="#DejaVuSans-115"/>
     </g>
    </g>
   </g>
  </g>
 </g>
 <defs>
  <clipPath id="pde67f144df">
   <rect height="278.2" width="386.53" x="63.47" y="25.44"/>
  </clipPath>
 </defs>
</svg>
